<svg width="301" height="301" viewBox="0 0 301 301" fill="none" xmlns="http://www.w3.org/2000/svg">
<path d="M272.999 173.724C273.813 163.136 272.727 148.206 265.941 129.474C258.068 103.957 243.409 81.9677 224.678 65.6797C226.578 58.0787 224.678 49.6632 218.706 43.9624C211.376 36.6328 200.246 35.2755 191.559 39.8904C187.215 20.8877 170.113 6.5 150.024 6.5C129.936 6.5 112.834 20.8877 108.49 39.8904C99.8031 35.004 88.673 36.3613 81.3434 43.9624C75.3711 49.6632 73.1994 58.0787 75.3711 65.6797C45.7813 91.1976 27.05 130.832 27.05 175.624C27.05 194.898 42.7951 209.286 66.4127 219.058V252.992C66.4127 277.967 104.418 289.911 144.052 290.997H156.268C195.902 289.911 233.908 277.967 233.908 252.992V222.588C245.038 217.43 253.996 209.829 259.969 203.585C262.955 200.87 265.398 197.884 267.57 194.898C268.384 193.812 268.927 193.269 268.927 193.269C268.927 193.269 269.198 192.455 269.741 191.097C272.185 186.482 273.27 181.325 273.27 175.895C272.999 175.081 272.999 174.266 272.999 173.724Z" fill="white"/>
<path d="M227.935 186.754C227.935 186.754 267.298 183.768 265.398 130.017C281.414 172.095 268.655 195.712 268.655 195.712C268.655 195.712 253.453 218.787 227.935 228.017C226.849 222.316 227.935 186.754 227.935 186.754Z" fill="#C9E3CA"/>
<path d="M273.542 178.61C273.542 254.892 27.3214 254.892 27.3214 178.61C27.3214 102.327 82.4292 40.1616 150.296 40.1616C218.434 40.4331 273.542 102.327 273.542 178.61Z" stroke="#87BBA1" stroke-width="12.1223" stroke-miterlimit="10" stroke-linecap="round" stroke-linejoin="round"/>
<path d="M150.567 40.4333C108.761 40.4333 74.828 73.5523 72.9277 114.815C72.9277 115.63 72.9277 254.892 72.9277 255.978C72.9277 277.424 111.747 288.011 150.567 288.011V114.544V288.011C189.387 288.011 228.207 277.424 228.207 255.978C228.207 255.164 228.207 115.901 228.207 114.815C226.306 73.5523 192.373 40.4333 150.567 40.4333Z" fill="white"/>
<path d="M156.54 293.983H144.324C104.689 292.897 66.6841 280.953 66.6841 255.978V114.815C68.8558 69.48 105.504 34.4608 150.567 34.4608C195.631 34.4608 232.279 69.7515 234.179 114.543V255.978C234.179 280.953 196.174 292.897 156.54 293.983ZM150.567 46.4054C112.019 46.4054 80.8003 76.5382 79.1715 114.815V255.706C79.1715 269.822 106.861 280.681 144.595 281.767V114.543H156.811V281.767C194.545 280.681 222.235 269.822 222.235 255.706V114.543C220.334 76.5382 188.844 46.4054 150.567 46.4054Z" fill="#87BBA1"/>
<path d="M94.6451 181.053C106.861 181.053 116.362 190.826 116.362 202.77C116.362 214.715 106.59 224.488 94.6451 224.488" fill="white"/>
<path d="M94.6451 181.053C106.861 181.053 116.362 190.826 116.362 202.77C116.362 214.715 106.59 224.488 94.6451 224.488" stroke="#87BBA1" stroke-width="12.1223" stroke-miterlimit="10" stroke-linecap="round" stroke-linejoin="round"/>
<path d="M207.032 181.053C194.816 181.053 185.315 190.826 185.315 202.77C185.315 214.715 195.088 224.488 207.032 224.488" fill="white"/>
<path d="M207.032 181.053C194.816 181.053 185.315 190.826 185.315 202.77C185.315 214.715 195.088 224.488 207.032 224.488" stroke="#87BBA1" stroke-width="12.1223" stroke-miterlimit="10" stroke-linecap="round" stroke-linejoin="round"/>
<path d="M192.916 47.7628C190.473 26.5884 172.285 9.75745 150.567 9.75745C128.85 9.75745 110.662 26.3169 108.219 47.7628C121.249 42.8764 135.365 40.1617 150.567 40.1617C165.769 40.1617 179.886 42.8764 192.916 47.7628Z" stroke="#87BBA1" stroke-width="12.1223" stroke-miterlimit="10" stroke-linecap="round" stroke-linejoin="round"/>
<path d="M229.836 222.044C229.836 222.044 217.62 262.221 150.024 260.593C148.938 272.537 147.31 288.282 147.31 288.282L185.586 286.382L218.977 270.365L229.293 251.363L229.836 222.044Z" fill="#C9E3CA"/>
<path d="M227.664 114.543C227.664 115.629 227.664 254.892 227.664 255.706C227.664 277.152 188.844 287.739 150.024 287.739" stroke="#87BBA1" stroke-width="12.1223" stroke-miterlimit="10" stroke-linecap="round" stroke-linejoin="round"/>
<path d="M150.567 114.543V288.011" stroke="#87BBA1" stroke-width="12.1223" stroke-miterlimit="10" stroke-linecap="round" stroke-linejoin="round"/>
<path d="M219.248 79.5243C228.207 70.5659 228.207 55.9067 219.248 47.2198C210.29 38.2614 195.631 38.2614 186.944 47.2198C177.985 56.1782 150.839 115.901 150.839 115.901C150.839 115.901 210.29 88.4827 219.248 79.5243Z" fill="white" stroke="#87BBA1" stroke-width="12.1223" stroke-miterlimit="10" stroke-linecap="round" stroke-linejoin="round"/>
<path d="M81.6148 79.5243C72.6564 70.5659 72.6564 55.9067 81.6148 47.2198C90.5732 38.2614 105.232 38.2614 113.919 47.2198C122.878 56.1782 150.024 115.901 150.024 115.901C150.024 115.901 90.8447 88.4827 81.6148 79.5243Z" fill="white" stroke="#87BBA1" stroke-width="12.1223" stroke-miterlimit="10" stroke-linecap="round" stroke-linejoin="round"/>
<path d="M159.254 144.948C159.254 149.834 155.182 153.635 150.567 153.635C145.681 153.635 141.88 149.563 141.88 144.948C141.88 140.062 150.567 116.715 150.567 116.715C150.567 116.715 159.254 140.062 159.254 144.948Z" fill="white" stroke="#87BBA1" stroke-width="12.1223" stroke-miterlimit="10" stroke-linecap="round" stroke-linejoin="round"/>
</svg>
