<svg width="301" height="301" viewBox="0 0 301 301" fill="none" xmlns="http://www.w3.org/2000/svg">
<path d="M55.2272 194.297C55.2272 194.297 27.5376 194.568 24.823 206.513C21.8368 217.914 20.751 232.845 20.751 232.845C20.751 232.845 26.1803 250.762 69.615 256.191C113.05 261.62 144.54 245.875 144.54 245.875C144.54 245.875 166.257 236.917 176.03 238.274C185.803 239.903 215.936 228.773 220.55 220.9C224.894 212.756 220.55 158.192 220.55 158.192L222.451 140.546C222.451 140.546 239.825 40.9179 238.739 26.5301C237.924 11.8709 179.288 24.0869 179.288 24.0869L124.994 34.4027C124.994 34.4027 109.249 35.2171 114.678 53.4053C120.108 71.5936 122.28 117.472 122.28 117.472C122.28 117.472 123.365 135.931 117.393 152.762C111.421 169.593 91.8753 182.352 91.8753 182.352C91.8753 182.352 75.3158 192.668 55.2272 194.297Z" fill="white"/>
<path d="M188.789 43.9038L240.91 31.4164L222.722 159.82L222.994 219.271L188.517 236.374L165.986 240.717C166.529 240.717 194.761 163.078 188.789 43.9038Z" fill="#C9E3CA"/>
<path d="M88.3461 263.249C82.3738 263.249 75.8586 262.978 69.072 262.163C23.1941 256.462 15.8645 236.917 15.3215 234.474C15.0501 233.659 15.05 233.116 15.05 232.302C15.05 231.759 16.1359 216.828 19.122 204.884C22.6511 189.682 49.2548 188.324 54.9557 188.324C73.1439 186.967 88.6175 177.466 88.6175 177.466C88.6175 177.466 106.534 165.521 111.964 150.862C117.393 135.66 116.579 118.286 116.579 118.286C116.579 117.743 114.407 72.9509 109.249 55.577C106.806 47.7045 107.349 41.1893 110.878 36.3029C115.221 30.0591 122.279 28.9733 124.451 28.7018L178.473 18.3861C189.875 15.9429 228.423 8.88473 240.367 18.1146C243.082 20.2863 244.711 23.001 244.982 26.5301C245.797 40.9178 230.595 130.502 228.694 141.632L227.066 158.463C228.423 175.565 230.866 215.199 226.251 223.886C220.007 235.017 186.346 246.147 175.487 244.246C170.058 243.432 155.941 247.775 147.526 251.305C144.54 252.662 121.465 263.249 88.3461 263.249ZM27.2661 231.759C28.8949 234.745 37.8533 246.147 70.7007 250.219C111.692 255.377 141.825 240.717 142.096 240.446C142.096 240.446 142.368 240.446 142.368 240.174C146.169 238.546 166.257 230.402 177.116 232.302C184.174 233.388 211.592 223.886 215.393 218.186C217.293 213.028 216.75 183.438 214.578 158.734C214.578 158.463 214.578 157.92 214.578 157.648L216.478 140.003C216.478 139.732 216.478 139.732 216.478 139.46C223.265 100.098 233.038 38.4746 232.766 27.3445C228.423 24.0869 203.991 25.1727 180.645 30.0591L126.351 40.3749C126.08 40.3749 125.808 40.3749 125.537 40.3749C125.537 40.3749 122.279 40.6463 120.651 42.8181C119.022 44.9898 119.836 48.7903 120.651 51.505C126.351 70.2362 128.252 115.028 128.523 116.928C128.523 117.743 129.609 136.746 123.365 154.391C116.579 172.851 96.2186 186.424 95.1327 186.967C94.3183 187.51 76.673 198.097 55.4986 199.726H55.2271C44.3685 199.997 31.6095 202.983 30.7951 207.055C28.6234 216.557 27.5375 227.687 27.2661 231.759Z" fill="#87BBA1"/>
<path d="M219.464 35.7598L144.811 49.6046C144.811 49.6046 126.894 55.3054 113.592 47.1614" stroke="#87BBA1" stroke-width="12.1223" stroke-miterlimit="10" stroke-linecap="round" stroke-linejoin="round"/>
<path d="M205.62 200.269C205.62 200.269 153.498 215.471 132.595 226.058C111.692 236.645 44.3686 234.745 24.28 213.299" stroke="#87BBA1" stroke-width="12.1223" stroke-miterlimit="10" stroke-linecap="round" stroke-linejoin="round"/>
<path d="M100.019 224.158C100.019 224.158 72.3296 224.429 69.615 236.374C66.6288 247.776 65.543 262.706 65.543 262.706C65.543 262.706 70.9723 280.623 114.407 286.052C157.842 291.482 189.332 275.737 189.332 275.737C189.332 275.737 211.049 266.778 220.822 268.136C230.595 269.764 260.728 258.634 265.342 250.762C269.686 242.618 265.342 188.053 265.342 188.053L267.243 170.408C267.243 170.408 284.617 70.7792 283.531 56.3915C282.716 41.7323 224.08 53.9483 224.08 53.9483L169.786 64.264C169.786 64.264 154.041 65.0784 159.47 83.2667C164.9 101.183 167.072 147.333 167.072 147.333C167.072 147.333 168.157 165.793 162.185 182.624C156.213 199.454 136.396 212.213 136.396 212.213C136.396 212.213 119.836 223.072 100.019 224.158Z" fill="white" stroke="#87BBA1" stroke-width="12.1223" stroke-miterlimit="10" stroke-linecap="round" stroke-linejoin="round"/>
<path d="M233.852 74.0367L285.974 61.5492L267.786 189.953L268.057 249.404L233.581 266.507L211.049 270.85C211.321 270.85 239.553 193.482 233.852 74.0367Z" fill="#C9E3CA"/>
<path d="M264.257 66.1643L189.603 80.0091C189.603 80.0091 171.686 85.7099 158.385 77.5659" stroke="#87BBA1" stroke-width="12.1223" stroke-miterlimit="10" stroke-linecap="round" stroke-linejoin="round"/>
<path d="M250.14 230.673C250.14 230.673 198.019 245.875 177.116 256.462C156.213 267.05 88.889 265.149 68.8004 243.704" stroke="#87BBA1" stroke-width="12.1223" stroke-miterlimit="10" stroke-linecap="round" stroke-linejoin="round"/>
<path d="M100.019 224.158C100.019 224.158 72.3296 224.429 69.615 236.374C66.6288 247.776 65.543 262.706 65.543 262.706C65.543 262.706 70.9723 280.623 114.407 286.052C157.842 291.482 189.332 275.737 189.332 275.737C189.332 275.737 211.049 266.778 220.822 268.136C230.595 269.764 260.728 258.634 265.342 250.762C269.686 242.618 265.342 188.053 265.342 188.053L267.243 170.408C267.243 170.408 284.617 70.7792 283.531 56.3915C282.716 41.7323 224.08 53.9483 224.08 53.9483L169.786 64.264C169.786 64.264 154.041 65.0784 159.47 83.2667C164.9 101.183 167.072 147.333 167.072 147.333C167.072 147.333 168.157 165.793 162.185 182.624C156.213 199.454 136.396 212.213 136.396 212.213C136.396 212.213 119.836 223.072 100.019 224.158Z" stroke="#87BBA1" stroke-width="12.1223" stroke-miterlimit="10" stroke-linecap="round" stroke-linejoin="round"/>
<path d="M158.113 213.028C158.113 222.8 150.24 230.673 140.467 230.673C130.695 230.673 122.822 222.8 122.822 213.028C122.822 203.255 140.467 156.562 140.467 156.562C140.467 156.562 158.113 203.255 158.113 213.028Z" fill="white"/>
<path d="M147.797 188.867C147.797 188.867 150.783 217.643 129.066 220.9C135.038 229.587 146.44 223.615 146.44 223.615L155.398 213.842V198.911L147.797 188.867Z" fill="#C9E3CA"/>
<path d="M140.467 236.645C127.437 236.645 116.85 226.058 116.85 213.028C116.85 202.712 131.781 162.535 134.767 154.391C135.581 151.948 138.024 150.59 140.467 150.59C142.911 150.59 145.354 152.219 146.168 154.391C149.154 162.263 164.085 202.712 164.085 213.028C164.085 226.058 153.498 236.645 140.467 236.645ZM140.467 174.479C134.495 191.039 129.066 208.684 129.066 213.028C129.066 219.271 134.224 224.429 140.467 224.429C146.711 224.429 151.869 219.271 151.869 213.028C152.141 208.684 146.44 191.039 140.467 174.479Z" fill="#87BBA1"/>
</svg>
