<svg width="301" height="301" viewBox="0 0 301 301" fill="none" xmlns="http://www.w3.org/2000/svg">
<path d="M141.26 47.5192C117.371 47.2478 77.7365 54.0344 77.7365 61.907V79.2808V139.818V157.192C77.7365 160.178 83.1658 162.893 91.5812 165.336C82.8943 167.779 76.9221 170.494 76.9221 173.751V191.125V251.934V269.308C76.9221 277.18 116.556 283.967 140.445 283.695C166.235 283.424 203.969 277.18 203.969 269.308V251.934V190.854V173.48C203.969 170.494 198.539 167.779 190.124 165.336C198.811 162.893 204.783 160.178 204.783 156.92V139.818V79.0094V61.6355C204.783 54.0344 167.049 47.7907 141.26 47.5192Z" fill="white"/>
<path d="M146.418 47.5192C122.529 47.2478 82.8946 54.0344 82.8946 61.907V79.2808V139.818V157.192C82.8946 160.178 88.3239 162.893 96.7393 165.336C88.0524 167.779 82.0801 170.494 82.0801 173.751V191.125V251.934V269.308C82.0801 277.18 121.714 283.967 145.603 283.695C171.393 283.424 209.127 277.18 209.127 269.308V251.934V190.854V173.48C209.127 170.494 203.697 167.779 195.282 165.336C203.969 162.893 209.941 160.178 209.941 156.92V139.818V79.0094V61.6355C209.941 54.0344 172.207 47.7907 146.418 47.5192Z" fill="white"/>
<path d="M200.982 173.208C200.982 173.208 196.368 178.638 173.836 179.995C174.922 248.133 148.861 279.623 148.861 279.623C148.861 279.623 193.381 281.252 203.969 267.407C208.855 253.562 200.982 173.208 200.982 173.208Z" fill="#C9E3CA"/>
<path d="M180.079 76.8375C180.079 76.8375 188.223 165.336 155.647 170.493C172.75 174.837 205.597 159.906 205.597 159.906L207.769 64.6215L180.079 76.8375Z" fill="#C9E3CA"/>
<path d="M139.36 289.396C120.628 289.396 83.4374 284.781 73.9361 275.823C71.4929 273.379 70.95 270.665 70.95 269.036V173.48C70.95 169.951 73.1218 167.236 76.1079 165.064C73.3933 162.893 71.7644 160.449 71.7644 157.192V61.9069C71.7644 60.2781 72.3074 57.5634 74.7506 55.1202C84.2519 45.6189 123.072 41.2754 141.26 41.5469C142.074 41.5469 210.755 42.9042 210.755 61.9069V157.192C210.755 160.721 208.584 163.707 205.597 165.607C208.312 167.779 209.941 170.222 209.941 173.48V268.765C209.941 287.767 141.26 289.125 140.445 289.125C140.174 289.396 139.631 289.396 139.36 289.396ZM83.166 267.407C88.5954 271.479 116.556 277.451 140.445 277.18C166.506 276.909 192.567 271.208 197.996 267.407V174.837C196.911 174.294 194.467 172.937 188.767 171.308C186.052 170.494 184.423 168.05 184.423 165.336C184.423 162.621 186.323 160.178 189.038 159.635C195.553 158.006 198.268 156.377 199.354 155.834V63.2642C194.196 59.4637 167.864 53.7629 141.803 53.4914C117.914 53.2199 89.9527 59.1922 84.5234 63.2642V155.834C85.6092 156.377 88.0525 158.006 93.7533 159.635C96.468 160.449 98.0967 162.893 98.0967 165.607C98.0967 168.322 96.1965 170.765 93.7533 171.308C87.5096 172.937 84.5234 174.566 83.709 175.109V267.407H83.166Z" fill="#87BBA1"/>
<path d="M113.299 253.291C122.8 254.648 132.301 255.191 140.445 255.191C166.235 254.92 203.969 248.676 203.969 240.803" stroke="#87BBA1" stroke-width="12.1223" stroke-miterlimit="10" stroke-linecap="round" stroke-linejoin="round"/>
<path d="M154.833 233.203C178.179 231.302 203.697 226.144 203.697 219.629Z" fill="white"/>
<path d="M154.833 233.203C178.179 231.302 203.697 226.144 203.697 219.629" stroke="#87BBA1" stroke-width="12.1223" stroke-miterlimit="10" stroke-linecap="round" stroke-linejoin="round"/>
<path d="M112.756 75.2088C122.257 76.5661 131.759 77.109 139.903 77.109C165.692 76.8376 203.426 70.5938 203.426 62.7213" fill="white"/>
<path d="M112.756 75.2088C122.257 76.5661 131.759 77.109 139.903 77.109C165.692 76.8376 203.426 70.5938 203.426 62.7213" stroke="#87BBA1" stroke-width="12.1223" stroke-miterlimit="10" stroke-linecap="round" stroke-linejoin="round"/>
<path d="M141.26 12.5C132.301 12.5 117.642 14.9432 117.642 17.9293V24.4445V47.2477V53.7629C117.642 56.7491 132.301 59.1923 141.26 59.1923C150.761 59.1923 164.877 56.7491 164.877 53.7629V47.2477V24.4445V17.9293C165.149 14.9432 151.033 12.5 141.26 12.5Z" fill="white" stroke="#87BBA1" stroke-width="12.1223" stroke-miterlimit="10" stroke-linecap="round" stroke-linejoin="round"/>
<path d="M114.385 169.679C123.886 171.037 133.387 171.58 141.531 171.58C167.321 171.308 205.055 165.064 205.055 157.192" stroke="#87BBA1" stroke-width="12.1223" stroke-miterlimit="10" stroke-linecap="round" stroke-linejoin="round"/>
<path d="M225.414 92.3111C225.414 102.084 217.542 109.956 207.769 109.956C197.996 109.956 190.124 102.084 190.124 92.3111C190.124 82.5383 207.769 35.846 207.769 35.846C207.769 35.846 225.414 82.8098 225.414 92.3111Z" fill="white"/>
<path d="M215.099 68.1506C215.099 68.1506 218.085 96.9261 196.367 100.184C202.34 108.871 213.741 102.898 213.741 102.898L222.7 93.1256V78.1949L215.099 68.1506Z" fill="#C9E3CA"/>
<path d="M207.769 116.2C194.739 116.2 184.151 105.613 184.151 92.5827C184.151 82.2669 199.082 42.0899 202.068 33.9459C202.883 31.5027 205.326 30.1453 207.769 30.1453C210.212 30.1453 212.655 31.7741 213.47 33.9459C216.456 41.8184 231.387 82.2669 231.387 92.5827C231.387 105.342 220.8 116.2 207.769 116.2ZM207.769 53.7629C201.797 70.3224 196.367 87.9677 196.367 92.3112C196.367 98.5549 201.525 103.713 207.769 103.713C214.013 103.713 219.171 98.5549 219.171 92.3112C219.171 87.9677 213.47 70.3224 207.769 53.7629Z" fill="#87BBA1"/>
</svg>
