<svg width="301" height="301" viewBox="0 0 301 301" fill="none" xmlns="http://www.w3.org/2000/svg">
<path d="M231.988 46.8905C231.988 47.7049 231.988 170.951 231.988 171.765C230.088 208.142 194.255 237.46 150.277 237.46C106.299 237.46 70.4657 208.142 68.5654 171.765C68.5654 170.951 68.5654 46.8905 68.5654 46.8905C68.5654 46.8905 190.997 46.8905 231.988 46.8905Z" fill="white"/>
<path d="M197.241 189.139C197.241 189.139 220.858 185.067 222.216 52.3196C225.473 46.3474 233.074 50.1479 233.074 50.1479L229.274 186.424L199.412 227.687L197.241 189.139Z" fill="#C9E3CA"/>
<path d="M150.005 243.704C102.77 243.704 64.2218 212.213 62.05 172.308V172.036V47.1617C62.05 43.9041 64.7647 41.1895 68.0224 41.1895H231.717C234.974 41.1895 237.689 43.9041 237.689 47.1617V172.036V172.308C235.789 212.485 197.24 243.704 150.005 243.704ZM74.5375 171.765C76.4378 205.427 109.557 231.488 150.277 231.488C190.997 231.488 224.116 205.155 226.016 171.765V53.134H74.5375V171.765V171.765Z" fill="#87BBA1"/>
<path d="M72.9087 81.3667H87.5679" stroke="#87BBA1" stroke-width="12.1223" stroke-miterlimit="10" stroke-linecap="round" stroke-linejoin="round"/>
<path d="M214.886 81.3667H229.274" stroke="#87BBA1" stroke-width="12.1223" stroke-miterlimit="10" stroke-linecap="round" stroke-linejoin="round"/>
<path d="M105.756 26.5306V54.4916C105.756 55.0346 105.756 55.849 105.756 56.3919V116.658C105.756 117.472 105.756 118.015 105.756 118.558V181.81C105.756 181.81 105.756 181.81 105.756 182.081C105.756 182.895 105.756 183.438 105.756 184.253V244.518C105.756 245.333 105.756 245.876 105.756 246.419V274.923C105.756 278.723 108.742 281.709 112.543 281.709C116.343 281.709 119.329 278.723 119.329 274.923L141.047 272.208L169.008 270.308C184.21 270.036 196.697 257.549 196.697 242.075V189.139C196.697 173.937 184.753 161.45 169.551 160.907L139.961 156.835C137.518 155.749 135.889 153.306 135.889 150.591C135.889 147.876 137.518 145.433 139.961 144.347L169.551 140.275C184.753 139.732 196.697 127.245 196.697 112.043V58.8351C196.697 43.3615 184.21 30.874 169.008 30.6026L134.532 28.1594C134.26 28.1594 133.989 28.1594 133.446 28.1594C133.174 28.1594 132.903 28.1594 132.903 28.1594L119.058 26.5306C119.058 22.73 116.072 19.7439 112.271 19.7439C109.014 19.7439 105.756 22.73 105.756 26.5306Z" fill="white"/>
<path d="M137.518 53.4055L172.537 112.857" stroke="#87BBA1" stroke-width="12.1223" stroke-miterlimit="10" stroke-linecap="round" stroke-linejoin="round"/>
<path d="M166.565 60.1921L176.88 77.8375" stroke="#87BBA1" stroke-width="12.1223" stroke-miterlimit="10" stroke-linecap="round" stroke-linejoin="round"/>
<path d="M164.393 190.768L174.709 208.413" stroke="#87BBA1" stroke-width="12.1223" stroke-miterlimit="10" stroke-linecap="round" stroke-linejoin="round"/>
<path d="M137.518 273.022C137.518 273.022 193.983 247.233 185.568 165.793C206.742 158.463 196.969 253.748 196.969 253.748C196.969 253.748 179.867 275.737 137.518 273.022Z" fill="#C9E3CA"/>
<path d="M112.814 288.224C105.756 288.224 99.7839 282.524 99.7839 275.194V246.961C99.7839 246.147 99.7839 245.604 99.7839 244.79V184.524C99.7839 183.71 99.7839 182.895 99.7839 182.352V119.101C99.7839 118.286 99.7839 117.743 99.7839 116.929V56.6632C99.7839 55.8488 99.7839 55.0344 99.7839 54.4915V26.5304C99.7839 19.4723 105.485 13.5 112.814 13.5C117.972 13.5 122.316 16.4861 124.487 20.8296L133.717 21.9155H133.989C134.532 21.9155 134.803 21.9155 135.346 21.9155L169.822 24.3587C188.011 24.6301 203.213 40.1037 203.213 58.5635V111.771C203.213 130.231 188.825 145.161 170.637 145.976L142.404 149.776C142.404 149.776 142.133 150.048 142.133 150.319C142.133 150.591 142.133 150.591 142.404 150.862L170.637 154.663C189.097 155.477 203.213 170.408 203.213 188.868V242.075C203.213 260.535 188.011 276.008 169.551 276.28L141.861 278.18L124.216 280.352C122.316 285.238 117.972 288.224 112.814 288.224ZM112 181.809C112 182.081 112 182.081 112 181.809C112 182.081 112 182.352 112 182.624C112 183.167 112 183.71 112 184.253V244.518C112 245.061 112 245.604 112 246.147C112 246.418 112 246.418 112 246.69V275.194C112 275.737 112.271 276.008 112.814 276.008C113.357 276.008 113.629 275.737 113.629 275.194C113.629 272.208 115.8 269.493 119.058 269.222L140.775 266.507H141.047L169.008 264.607C181.224 264.335 190.997 254.291 190.997 242.346V189.139C190.997 177.194 181.767 167.422 169.551 166.879C169.279 166.879 169.279 166.879 169.008 166.879L139.418 162.807C138.875 162.807 138.332 162.535 137.789 162.264C133.174 160.092 130.188 155.477 130.188 150.591C130.188 145.704 133.174 140.818 137.789 138.918C138.332 138.646 138.875 138.646 139.418 138.375L169.008 134.303C169.279 134.303 169.279 134.303 169.551 134.303C181.495 133.76 190.997 123.987 190.997 112.042V58.8349C190.997 46.8904 181.224 36.8461 169.279 36.5747L134.532 34.1315C134.26 34.1315 134.26 34.1315 133.989 34.1315H133.446C133.174 34.1315 132.903 34.1315 132.631 34.1315L118.787 32.5027C115.8 32.2312 113.357 29.5165 113.357 26.5304C113.357 25.9875 113.086 25.716 112.543 25.716C112 25.716 111.729 25.9875 111.729 26.5304V54.4915C111.729 54.7629 111.729 54.7629 111.729 55.0344C111.729 55.5773 111.729 56.1203 111.729 56.6632V116.929C111.729 117.472 111.729 118.015 111.729 118.558C111.729 118.829 111.729 118.829 111.729 119.101V181.809H112Z" fill="#87BBA1"/>
<path d="M135.346 184.253L170.365 243.432" stroke="#87BBA1" stroke-width="12.1223" stroke-miterlimit="10" stroke-linecap="round" stroke-linejoin="round"/>
</svg>
