<svg width="301" height="301" viewBox="0 0 301 301" fill="none" xmlns="http://www.w3.org/2000/svg">
<path d="M251.279 202.449C251.279 259.186 46.05 259.186 46.05 202.449C46.05 145.713 92.1994 100.106 148.393 100.106C205.13 100.106 251.279 145.713 251.279 202.449Z" fill="white"/>
<path d="M176.897 139.741C176.897 139.741 230.647 171.774 234.176 224.981C261.866 223.352 251.822 179.103 251.822 179.103L226.847 130.511L205.129 119.923L195.357 128.067L195.9 139.469L188.299 142.184L176.897 139.741Z" fill="#C9E3CA"/>
<path d="M251.55 202.992C251.55 259.729 46.3215 259.729 46.3215 202.992C46.3215 146.256 92.4708 100.649 148.664 100.649C205.672 100.649 251.55 146.256 251.55 202.992Z" stroke="#87BBA1" stroke-width="12.1223" stroke-miterlimit="10" stroke-linecap="round" stroke-linejoin="round"/>
<path d="M205.129 113.68C205.129 108.25 201.6 103.907 196.442 102.821C196.171 102.278 196.171 101.735 195.9 100.921C197.528 98.2061 198.343 95.22 198.343 91.4195C198.343 81.3752 190.47 73.2312 180.426 72.9597C180.426 62.644 172.282 54.5 161.966 54.5C153.279 54.5 145.95 60.4723 143.778 69.1592C141.335 66.1731 138.077 64.2728 133.734 64.2728C127.761 64.2728 122.604 68.8877 121.246 74.5885H120.975C113.645 74.5885 107.944 80.2893 107.944 87.6189C107.944 90.3336 108.759 93.0483 110.388 95.22C109.845 96.3059 109.302 97.3917 108.759 98.4776C99.8003 99.5635 92.7422 107.436 92.7422 116.666C92.7422 126.982 100.886 135.126 111.202 135.126C114.459 135.126 117.989 134.311 120.703 132.682C122.875 140.555 130.205 146.256 138.62 146.256C144.864 146.256 150.565 143.27 153.822 138.383C155.451 141.641 158.709 144.084 162.509 144.084C167.938 144.084 172.282 139.741 172.282 134.311C172.282 134.04 172.282 133.768 172.282 133.497C173.911 133.225 175.268 132.954 176.897 132.682C177.44 137.297 181.512 140.826 186.398 140.826C191.556 140.826 195.9 136.483 195.9 131.325C195.9 128.882 195.085 126.982 193.728 125.353C193.999 125.353 193.999 125.081 194.271 125.081C199.972 124.538 205.129 119.652 205.129 113.68Z" fill="white" stroke="#87BBA1" stroke-width="12.1223" stroke-miterlimit="10" stroke-linecap="round" stroke-linejoin="round"/>
<path d="M245.578 170.688C245.578 227.424 51.7507 227.424 51.7507 170.688" stroke="#87BBA1" stroke-width="12.1223" stroke-miterlimit="10" stroke-linecap="round" stroke-linejoin="round"/>
<path d="M229.29 141.369C229.29 198.106 69.396 198.106 69.396 141.369" stroke="#87BBA1" stroke-width="12.1223" stroke-miterlimit="10" stroke-linecap="round" stroke-linejoin="round"/>
<path d="M149.208 68.8877C149.208 68.8877 160.338 68.6162 159.795 79.4749C159.252 90.3336 174.454 88.1618 174.454 88.1618C174.454 88.1618 180.698 91.6909 176.897 98.4776C172.825 105.264 182.055 109.879 182.055 109.879C182.055 109.879 185.584 118.295 182.055 120.195C178.526 122.095 180.426 131.597 180.426 131.597L186.127 138.383L191.828 134.854V125.081L197.8 120.466L202.415 114.494V106.622L194.542 99.292L195.085 90.6051L189.385 77.3032L176.626 72.6882L171.196 60.7437L156.266 58.0291L148.936 63.4584" fill="#C9E3CA"/>
<path d="M205.129 113.68C205.129 108.25 201.6 103.907 196.442 102.821C196.171 102.278 196.171 101.735 195.9 100.921C197.528 98.2061 198.343 95.22 198.343 91.4195C198.343 81.3752 190.47 73.2312 180.426 72.9597C180.426 62.644 172.282 54.5 161.966 54.5C153.279 54.5 145.95 60.4723 143.778 69.1592C141.335 66.1731 138.077 64.2728 133.734 64.2728C127.761 64.2728 122.604 68.8877 121.246 74.5885H120.975C113.645 74.5885 107.944 80.2893 107.944 87.6189C107.944 90.3336 108.759 93.0483 110.388 95.22C109.845 96.3059 109.302 97.3917 108.759 98.4776C99.8003 99.5635 92.7422 107.436 92.7422 116.666C92.7422 126.982 100.886 135.126 111.202 135.126C114.459 135.126 117.989 134.311 120.703 132.682C122.875 140.555 130.205 146.256 138.62 146.256C144.864 146.256 150.565 143.27 153.822 138.383C155.451 141.641 158.709 144.084 162.509 144.084C167.938 144.084 172.282 139.741 172.282 134.311C172.282 134.04 172.282 133.768 172.282 133.497C173.911 133.225 175.268 132.954 176.897 132.682C177.44 137.297 181.512 140.826 186.398 140.826C191.556 140.826 195.9 136.483 195.9 131.325C195.9 128.882 195.085 126.982 193.728 125.353C193.999 125.353 193.999 125.081 194.271 125.081C199.972 124.538 205.129 119.652 205.129 113.68Z" stroke="#87BBA1" stroke-width="12.1223" stroke-miterlimit="10" stroke-linecap="round" stroke-linejoin="round"/>
</svg>
