<svg width="301" height="301" viewBox="0 0 301 301" fill="none" xmlns="http://www.w3.org/2000/svg">
<path d="M236.475 113.571C235.932 113.028 235.39 112.757 234.847 112.214C235.661 105.97 235.389 100.27 235.118 97.2834C232.946 49.2338 193.584 11.7714 145.534 11.7714C97.4844 11.7714 58.1217 49.5052 55.95 97.5549C55.95 100.27 55.9501 113.571 57.5789 122.53C62.7367 151.848 75.2241 208.856 77.6673 219.986C64.9084 247.676 64.9085 248.219 64.9085 249.848C64.9085 274.823 95.8556 290.296 145.534 290.296C206.885 290.296 228.874 269.393 229.146 249.848C229.146 247.947 229.146 247.947 212.858 218.358V218.086C214.215 211.842 218.287 193.383 222.631 173.023C231.589 164.064 235.661 159.992 237.29 157.82C249.234 145.333 248.691 125.516 236.475 113.571Z" fill="white"/>
<path d="M197.927 107.871C197.927 107.871 207.429 71.7656 197.927 37.2893C188.426 2.81301 223.174 72.8514 223.174 72.8514L228.603 113.029L210.958 105.699L197.927 107.871Z" fill="#C9E3CA"/>
<path d="M190.597 238.989L212.858 228.402L224.802 256.906L206.342 278.08C206.071 278.08 207.971 255.82 190.597 238.989Z" fill="#C9E3CA"/>
<path d="M144.991 287.582C101.828 287.582 67.6232 275.637 67.6232 251.748C67.6232 251.205 81.1965 221.615 81.1965 221.615C81.1965 221.615 65.9943 152.934 60.022 119.001C58.3932 109.771 58.6647 94.2974 58.6647 94.2974C60.5649 48.4195 98.5704 11.5 144.991 11.5C191.412 11.5 229.417 48.4195 231.318 94.2974C231.318 94.5688 232.403 102.17 231.046 109.771C225.074 141.804 208.243 219.986 208.243 219.986C208.243 219.986 225.345 251.477 225.345 251.748C225.074 275.637 187.883 287.582 144.991 287.582Z" stroke="#87BBA1" stroke-width="12.1223" stroke-miterlimit="10" stroke-linecap="round" stroke-linejoin="round"/>
<path d="M200.913 187.41C201.185 187.139 235.389 152.934 235.661 152.663C245.434 142.076 245.162 125.516 234.575 115.472C224.531 105.427 207.7 104.885 197.384 114.657C197.113 114.929 162.908 149.134 162.636 149.405" fill="white"/>
<path d="M200.913 187.41C201.185 187.139 235.389 152.934 235.661 152.663C245.434 142.076 245.162 125.516 234.575 115.472C224.531 105.427 207.7 104.885 197.384 114.657C197.113 114.929 162.908 149.134 162.636 149.405" stroke="#87BBA1" stroke-width="12.1223" stroke-miterlimit="10" stroke-linecap="round" stroke-linejoin="round"/>
<path d="M208.514 218.086C206.343 241.975 162.094 249.576 119.202 245.504" stroke="#87BBA1" stroke-width="12.1223" stroke-miterlimit="10" stroke-linecap="round" stroke-linejoin="round"/>
</svg>
