<svg width="301" height="301" viewBox="0 0 301 301" fill="none" xmlns="http://www.w3.org/2000/svg">
<path d="M268.284 193.668C268.284 249.319 32.9221 249.319 32.9221 193.668C32.9221 138.017 85.5867 92.954 150.739 92.954C215.891 92.954 268.284 138.017 268.284 193.668Z" fill="white"/>
<path d="M245.48 137.746C235.708 124.173 217.248 105.17 194.173 95.6686C190.916 97.0259 187.387 97.0259 184.4 95.1256C182.5 93.7683 178.971 94.3112 175.714 94.5827C222.677 111.142 215.619 156.477 215.619 156.477L243.037 176.294C243.037 176.294 247.924 221.901 231.364 238.732C245.752 226.787 268.555 203.169 268.555 203.169C268.555 203.169 273.984 149.69 245.48 137.746Z" fill="#C9E3CA"/>
<path d="M150.739 241.446C119.249 241.446 89.9302 237.646 67.9414 230.588C34.008 220 26.95 204.527 26.95 193.668C26.95 134.76 82.3291 86.9816 150.739 86.9816C218.877 86.9816 274.256 134.76 274.256 193.668C274.256 226.787 212.362 241.446 150.739 241.446ZM150.739 98.9261C89.1158 98.9261 38.8944 141.546 38.8944 193.668C38.8944 214.028 86.944 229.502 150.739 229.502C214.533 229.502 262.583 214.028 262.583 193.668C262.583 141.546 212.362 98.9261 150.739 98.9261Z" fill="#87BBA1"/>
<path d="M245.481 185.796C245.481 133.674 55.7253 133.674 55.7253 185.796C55.7253 237.917 98.0742 280.809 150.739 280.809C203.403 280.537 245.481 238.189 245.481 185.796Z" fill="white"/>
<path d="M150.739 286.51C95.0882 286.51 49.7532 241.175 49.7532 185.524C49.7532 154.305 100.246 140.461 150.467 140.461C200.689 140.461 251.182 154.305 251.182 185.524C251.453 241.175 206.39 286.51 150.739 286.51ZM150.739 152.405C99.9746 152.405 61.9692 166.793 61.9692 185.796C61.9692 234.931 101.875 274.837 151.01 274.837C199.874 274.837 239.78 234.931 239.78 185.796C239.78 173.851 225.664 166.25 213.991 161.906C197.703 155.934 174.628 152.405 150.739 152.405Z" fill="#87BBA1"/>
<path d="M211.547 117.929L150.739 97.0259L89.9301 117.929L104.861 98.6547L89.9301 80.195L150.739 88.8819L211.547 80.195L196.617 98.6547L211.547 117.929Z" fill="white"/>
<path d="M154.268 87.5245L205.847 83.181L196.617 98.6546L204.218 113.042L156.168 98.9261L154.268 87.5245Z" fill="#C9E3CA"/>
<path d="M211.548 123.63C211.005 123.63 210.19 123.63 209.647 123.358L150.739 103.27L91.8307 123.358C89.3875 124.172 86.6728 123.358 85.044 121.186C83.4152 119.015 83.6867 116.3 85.044 114.128L96.9886 98.6546L85.044 83.7239C83.4152 81.8236 83.4152 79.109 84.501 77.2087C85.5869 75.037 88.0301 73.9511 90.4733 74.2226L150.196 82.9095L209.919 74.2226C212.362 73.9511 214.805 75.037 215.891 77.2087C216.977 79.3805 216.977 82.0951 215.348 83.7239L203.404 98.6546L215.348 114.128C216.977 116.3 216.977 119.015 215.348 121.186C215.077 122.815 213.448 123.63 211.548 123.63ZM159.154 93.7682L194.717 105.984L191.73 102.184C190.102 100.012 190.102 97.0258 191.73 94.8541L197.16 88.0674L159.154 93.7682ZM104.047 88.0674L109.476 94.8541C111.105 97.0258 111.105 100.012 109.476 102.184L106.49 105.984L142.052 93.7682L104.047 88.0674Z" fill="#87BBA1"/>
<path d="M150.739 72.3224C143.409 72.3224 131.193 74.2227 131.193 76.6659V82.0952V100.826V106.256C131.193 108.699 143.409 110.871 150.739 110.599C158.611 110.599 170.285 108.699 170.285 106.256V100.826V82.0952V76.6659C170.285 74.4941 158.611 72.5939 150.739 72.3224Z" fill="white"/>
<path d="M150.739 116.843C150.196 116.843 132.55 116.572 127.121 111.414C125.764 110.056 124.949 108.156 124.949 106.527V76.9373C124.949 75.0371 125.764 73.4083 127.121 72.051C132.55 66.8931 150.196 66.6216 150.739 66.6216C160.24 66.6216 176.257 68.2504 176.257 76.9373V106.527C176.257 115.214 160.24 116.572 150.739 116.843ZM136.894 103.27C139.88 104.084 145.852 104.898 150.467 104.898C155.625 104.898 161.326 104.084 164.312 103.27V79.9235C161.326 79.1091 155.897 78.2947 150.467 78.2947C145.581 78.2947 139.88 79.1091 136.894 79.9235V103.27Z" fill="#87BBA1"/>
<path d="M150.738 89.9679C177.875 89.9679 199.874 74.4108 199.874 55.2202C199.874 36.0295 177.875 20.4725 150.738 20.4725C123.602 20.4725 101.603 36.0295 101.603 55.2202C101.603 74.4108 123.602 89.9679 150.738 89.9679Z" fill="white"/>
<path d="M150.739 22.3727C150.739 22.3727 194.716 45.9903 170.284 86.9817C184.944 79.9236 214.805 70.4222 194.445 37.5748C163.498 13.1428 150.739 22.3727 150.739 22.3727Z" fill="#C9E3CA"/>
<path d="M150.739 95.94C120.334 95.94 95.6309 77.7518 95.6309 55.22C95.6309 32.9597 120.334 14.5 150.739 14.5C181.143 14.5 205.846 32.6883 205.846 55.22C205.846 77.7518 181.143 95.94 150.739 95.94ZM150.739 26.4446C126.849 26.4446 107.575 39.4749 107.575 55.22C107.575 70.9651 127.121 83.9955 150.739 83.9955C174.628 83.9955 193.902 70.9651 193.902 55.22C193.902 39.4749 174.628 26.4446 150.739 26.4446Z" fill="#87BBA1"/>
</svg>
