<svg width="301" height="301" viewBox="0 0 301 301" fill="none" xmlns="http://www.w3.org/2000/svg">
<path d="M206.373 67.4221C206.373 67.4221 292.157 199.355 60.0527 167.05C133.892 229.216 265.01 170.037 252.794 159.721L249.808 125.516C249.808 125.516 237.863 72.8515 206.373 67.4221Z" fill="#C9E3CA"/>
<path d="M149.365 47.8765C93.7146 47.8765 48.3796 93.2114 48.3796 148.862C48.3796 159.178 54.0804 173.566 81.77 183.881C99.6868 190.397 123.576 194.197 149.365 194.197C199.587 194.197 250.351 180.352 250.351 149.134C250.622 93.2114 205.287 47.8765 149.365 47.8765Z" fill="white"/>
<path d="M149.908 198.269C122.219 198.269 96.4292 194.469 77.1551 187.139C47.2937 176.28 41.05 160.535 41.05 149.677C41.05 89.954 89.6425 41.09 149.637 41.09C209.631 41.09 258.495 89.6825 258.495 149.677C258.495 183.339 203.93 198.269 149.908 198.269ZM149.637 53.5775C96.4292 53.5775 53.266 96.7407 53.266 149.948C53.266 173.566 102.944 186.325 149.908 186.325C196.872 186.325 246.55 173.566 246.55 149.948C246.279 96.7407 203.116 53.5775 149.637 53.5775Z" fill="#87BBA1"/>
<path d="M170.54 288.939C156.152 288.939 144.479 277.266 144.479 262.878L143.936 195.283C143.936 192.025 146.651 189.311 149.908 189.039C153.166 189.039 155.88 191.754 155.88 195.012L156.423 262.607C156.423 270.479 162.667 276.723 170.268 276.723C177.869 276.723 184.113 270.479 184.113 262.878C184.113 259.621 186.828 256.906 190.085 256.906C193.343 256.906 196.058 259.621 196.058 262.878C196.6 277.266 184.927 288.939 170.54 288.939Z" fill="#87BBA1"/>
<path d="M149.908 53.5773C146.651 53.5773 143.936 50.8627 143.936 47.6051V17.4723C143.936 14.2147 146.651 11.5 149.908 11.5C153.166 11.5 155.88 14.2147 155.88 17.4723V47.3336C156.152 50.8627 153.437 53.5773 149.908 53.5773Z" fill="#87BBA1"/>
<path d="M226.19 164.336L234.877 149.677H216.146L211.803 133.117L198.772 146.148L183.842 137.732V156.192L167.554 160.807L180.584 173.837L172.169 188.496H190.628L194.972 205.056L208.274 192.025L222.933 200.441V181.981L239.492 177.366L226.19 164.336Z" fill="white"/>
<path d="M182.213 187.139C182.213 187.139 217.503 181.71 231.348 147.776C231.891 162.707 226.733 182.524 226.733 182.524L219.132 193.111L197.415 196.64L182.213 187.139Z" fill="#C9E3CA"/>
<path d="M194.972 211.028C194.429 211.028 193.886 211.028 193.343 210.757C191.171 210.214 189.542 208.585 188.999 206.413L185.742 194.469H171.897C169.725 194.469 167.825 193.383 166.739 191.483C165.653 189.582 165.653 187.41 166.739 185.51L172.983 174.652L163.21 164.879C161.581 163.25 161.038 161.078 161.581 158.907C162.124 156.735 163.753 155.106 165.925 154.563L177.869 151.305V137.461C177.869 135.289 178.955 133.389 180.855 132.303C182.756 131.217 184.927 131.217 186.828 132.303L197.686 138.547L207.459 128.774C209.088 127.145 211.26 126.602 213.431 127.145C215.603 127.688 217.232 129.317 217.775 131.488L221.032 143.433H234.877C237.049 143.433 238.949 144.519 240.035 146.419C241.121 148.319 241.121 150.491 240.035 152.391L233.791 163.25L243.564 173.023C245.193 174.652 245.736 176.823 245.193 178.995C244.65 181.167 243.021 182.796 240.85 183.339L228.905 186.596V200.441C228.905 202.613 227.819 204.513 225.919 205.599C224.019 206.685 221.847 206.685 219.947 205.599L209.088 199.355L199.315 209.128C198.229 210.485 196.6 211.028 194.972 211.028ZM182.756 182.524H190.9C193.614 182.524 196.058 184.424 196.872 187.139L198.501 193.383L204.202 187.682C206.102 185.782 209.088 185.239 211.531 186.596L217.232 189.854V181.71C217.232 178.995 219.132 176.552 221.847 175.737L228.091 174.109L222.39 168.408C220.49 166.508 219.947 163.521 221.304 161.078L224.562 155.377H216.418C213.703 155.377 211.26 153.477 210.445 150.763L208.816 144.519L203.116 150.491C201.215 152.391 198.229 152.934 195.786 151.577L190.085 148.319V156.463C190.085 159.178 188.185 161.621 185.47 162.436L179.227 164.064L184.927 169.765C186.828 171.665 187.371 174.652 186.013 177.095L182.756 182.524Z" fill="#87BBA1"/>
<path d="M203.387 180.081C209.534 180.081 214.517 175.098 214.517 168.951C214.517 162.804 209.534 157.821 203.387 157.821C197.24 157.821 192.257 162.804 192.257 168.951C192.257 175.098 197.24 180.081 203.387 180.081Z" fill="#87BBA1"/>
</svg>
