<svg width="301" height="301" viewBox="0 0 301 301" fill="none" xmlns="http://www.w3.org/2000/svg">
<path d="M209.16 34.8323C208.617 34.2893 208.074 33.7464 207.531 32.932C207.259 32.6605 206.988 32.3891 206.717 32.1176V28.3171C206.717 19.0872 199.387 11.7576 190.157 11.4861C187.171 11.2147 166.811 8.5 149.166 8.5C129.62 8.77147 113.332 11.2147 110.346 11.4861C101.387 11.7576 94.0578 19.0872 94.0578 28.3171V32.1176C93.7864 32.3891 93.5148 32.3891 93.2433 32.6605C59.8529 62.5219 38.95 117.63 38.95 176.266C38.95 197.169 49.2657 214.815 68.8113 227.845V255.806C68.8113 281.324 109.531 292.726 149.98 292.997C190.428 292.997 231.149 281.596 231.149 256.078V228.117C250.694 215.086 261.281 197.441 261.281 176.538C261.553 118.987 241.464 65.2366 209.16 34.8323Z" fill="white"/>
<path d="M224.633 218.073C224.633 218.073 211.603 288.382 149.98 288.925C202.373 301.684 228.162 263.136 228.162 263.136L224.633 218.073Z" fill="#C9E3CA"/>
<path d="M228.705 184.411C228.705 184.411 258.024 181.424 256.666 127.674C268.611 169.751 259.11 193.369 259.11 193.369C259.11 193.369 247.708 216.444 228.705 225.402C227.62 219.973 228.705 184.411 228.705 184.411Z" fill="#C9E3CA"/>
<path d="M205.359 34.0179C219.476 48.1342 228.434 67.6798 228.162 89.1257L227.891 259.335C227.891 301.956 72.6119 301.956 72.6119 259.064L72.8833 88.8542C72.8833 67.4084 81.5703 48.1342 95.6866 34.0179" stroke="#87BBA1" stroke-width="12.1223" stroke-miterlimit="10" stroke-linecap="round" stroke-linejoin="round"/>
<path d="M205.359 34.0179C237.664 62.7934 259.381 116.272 259.11 177.352C259.11 199.07 246.894 215.629 228.163 227.031" stroke="#87BBA1" stroke-width="12.1223" stroke-miterlimit="10" stroke-linecap="round" stroke-linejoin="round"/>
<path d="M73.155 227.031C54.4238 215.629 42.2078 199.07 42.2078 177.352C42.2078 116.272 63.9252 62.7934 96.2297 34.0179" stroke="#87BBA1" stroke-width="12.1223" stroke-miterlimit="10" stroke-linecap="round" stroke-linejoin="round"/>
<path d="M193.958 240.876C193.958 240.876 185.542 222.144 186.085 198.798C163.01 203.413 114.146 198.527 114.146 198.527C114.146 219.701 106.002 240.604 106.002 240.604C133.964 247.662 166.268 247.934 193.958 240.876Z" stroke="#87BBA1" stroke-width="12.1223" stroke-miterlimit="10" stroke-linecap="round" stroke-linejoin="round"/>
<path d="M170.069 44.8766H192.058C198.301 44.8766 203.459 50.0345 203.459 56.2782V64.6937C203.459 70.9374 198.301 76.0953 192.058 76.0953C192.058 76.0953 169.526 79.0814 150.252 79.0814C128.534 79.0814 110.889 76.0953 110.889 76.0953C104.645 76.0953 99.4875 70.9374 99.4875 64.6937V56.2782C99.4875 50.0345 104.645 44.8766 110.889 44.8766H119.576" stroke="#87BBA1" stroke-width="12.1223" stroke-miterlimit="10" stroke-linecap="round" stroke-linejoin="round"/>
<path d="M191.515 44.8767C197.758 44.8767 202.916 39.7188 202.916 33.4751V25.0596C202.916 18.8159 197.758 13.658 191.515 13.658C191.515 13.658 168.983 10.6719 149.709 10.6719C127.992 10.6719 110.075 13.658 110.075 13.658C103.831 13.658 98.673 18.8159 98.673 25.0596V33.4751C98.673 39.7188 103.831 44.8767 110.075 44.8767" stroke="#87BBA1" stroke-width="12.1223" stroke-miterlimit="10" stroke-linecap="round" stroke-linejoin="round"/>
<path d="M130.706 79.0814L130.434 108.671" stroke="#87BBA1" stroke-width="12.1223" stroke-miterlimit="10" stroke-linecap="round" stroke-linejoin="round"/>
<path d="M130.434 131.203C135.832 131.203 140.207 126.828 140.207 121.43C140.207 116.033 135.832 111.657 130.434 111.657C125.037 111.657 120.662 116.033 120.662 121.43C120.662 126.828 125.037 131.203 130.434 131.203Z" stroke="#87BBA1" stroke-width="12.1223" stroke-miterlimit="10" stroke-linecap="round" stroke-linejoin="round"/>
<path d="M170.612 80.4387V120.073" stroke="#87BBA1" stroke-width="12.1223" stroke-miterlimit="10" stroke-linecap="round" stroke-linejoin="round"/>
<path d="M170.611 142.876C176.009 142.876 180.384 138.501 180.384 133.103C180.384 127.706 176.009 123.331 170.611 123.331C165.214 123.331 160.839 127.706 160.839 133.103C160.839 138.501 165.214 142.876 170.611 142.876Z" stroke="#87BBA1" stroke-width="12.1223" stroke-miterlimit="10" stroke-linecap="round" stroke-linejoin="round"/>
</svg>
