<svg width="182" height="170" viewBox="0 0 182 170" fill="none" xmlns="http://www.w3.org/2000/svg">
<g clip-path="url(#clip0)">
<path d="M126.967 35.5086C126.429 19.4452 115.592 5.99496 100.835 1.53717C97.5304 0.538009 93.9949 0 90.3057 0C70.015 0 53.4905 16.4477 53.4905 36.7383C53.4905 57.029 69.9382 73.4767 90.2288 73.4767C110.519 73.4767 126.967 57.029 126.967 36.7383C127.044 36.3541 127.044 35.8929 126.967 35.5086Z" fill="#7F7F7F"/>
<path d="M126.97 35.5128C126.432 19.4494 115.594 5.99917 100.838 1.54138C102.529 3.38599 108.216 10.6875 108.985 27.5195C109.676 41.5846 120.59 38.5103 126.97 35.5128Z" fill="#464747"/>
<path d="M108.985 27.5048C102.99 26.4288 96.8417 25.8907 90.4624 25.8907C40.9656 25.8907 0 60.4771 0 103.441C0 130.956 74.4758 140.871 127.892 133.108C128.507 129.419 129.583 125.038 131.274 119.812C146.8 70.5455 124.818 41.2624 108.985 27.5048Z" fill="#909091"/>
<path d="M180.997 103.448C180.997 65.9409 150.176 34.8132 108.98 27.5885C124.813 41.3462 146.795 70.5524 131.192 119.819C129.501 125.045 128.425 129.426 127.811 133.115C157.708 128.734 180.997 118.819 180.997 103.448Z" fill="#4F5253"/>
<path d="M163.711 95.9205C163.711 55.4161 17.603 55.4161 17.603 95.9205C17.603 136.425 50.6522 169.013 90.6954 169.013C131.123 169.013 163.711 136.425 163.711 95.9205Z" fill="#F2DCD1"/>
<path opacity="0.45" d="M44.427 138.893C64.5896 138.893 80.9347 122.548 80.9347 102.385C80.9347 82.2224 64.5896 65.8773 44.427 65.8773C24.2643 65.8773 7.91919 82.2224 7.91919 102.385C7.91919 122.548 24.2643 138.893 44.427 138.893Z" fill="white"/>
<path d="M80.1631 109.223C80.1631 103.381 84.9283 98.6931 90.6927 98.6931C96.4571 98.6931 101.222 103.458 101.222 109.223" stroke="#C9E3CA" stroke-width="3.86867" stroke-miterlimit="10" stroke-linecap="round"/>
<path d="M64.7158 96.3699V107.284" stroke="black" stroke-width="3.86867" stroke-miterlimit="10" stroke-linecap="round"/>
<path opacity="0.45" d="M137.725 138.893C157.888 138.893 174.233 122.548 174.233 102.385C174.233 82.2224 157.888 65.8773 137.725 65.8773C117.562 65.8773 101.217 82.2224 101.217 102.385C101.217 122.548 117.562 138.893 137.725 138.893Z" fill="white"/>
<path opacity="0.13" d="M56.3321 143.804C62.6144 143.804 67.7071 138.712 67.7071 132.429C67.7071 126.147 62.6144 121.054 56.3321 121.054C50.0498 121.054 44.957 126.147 44.957 132.429C44.957 138.712 50.0498 143.804 56.3321 143.804Z" fill="#C66073"/>
<path opacity="0.13" d="M124.89 143.804C131.172 143.804 136.265 138.712 136.265 132.429C136.265 126.147 131.172 121.054 124.89 121.054C118.608 121.054 113.515 126.147 113.515 132.429C113.515 138.712 118.608 143.804 124.89 143.804Z" fill="#C66073"/>
<path d="M117.514 95.9231V106.76" stroke="black" stroke-width="3.86867" stroke-miterlimit="10" stroke-linecap="round"/>
<path d="M44.427 138.893C64.5896 138.893 80.9347 122.548 80.9347 102.385C80.9347 82.2224 64.5896 65.8773 44.427 65.8773C24.2643 65.8773 7.91919 82.2224 7.91919 102.385C7.91919 122.548 24.2643 138.893 44.427 138.893Z" stroke="#C9E3CA" stroke-width="3.86867" stroke-miterlimit="10" stroke-linecap="round"/>
<path d="M137.267 138.893C157.43 138.893 173.775 122.548 173.775 102.385C173.775 82.2224 157.43 65.8773 137.267 65.8773C117.105 65.8773 100.76 82.2224 100.76 102.385C100.76 122.548 117.105 138.893 137.267 138.893Z" stroke="#C9E3CA" stroke-width="3.86867" stroke-miterlimit="10" stroke-linecap="round"/>
<path d="M162.168 25.2781L147.334 23.2798C147.334 23.2798 148.333 19.36 153.252 12.4427C140.033 12.4427 127.812 23.5872 121.356 30.5045C126.659 32.1185 131.732 34.1937 136.497 36.5763C148.18 30.8888 162.168 25.2781 162.168 25.2781Z" fill="#EE94B8"/>
</g>
<defs>
<clipPath id="clip0">
<rect width="181.002" height="169.012" fill="white"/>
</clipPath>
</defs>
</svg>
