<svg width="155" height="36" viewBox="0 0 155 36" fill="none" xmlns="http://www.w3.org/2000/svg">
<path d="M11.35 1.151H15.25L25.85 25.451H21.35L18.95 19.651H7.55L5.05 25.451H0.75L11.35 1.151ZM17.45 15.851L13.25 6.25101L9.15001 15.851H17.45Z" fill="#364958"/>
<path d="M31.8499 22.551V25.351H27.6499V0.251038H31.8499V10.251C33.1499 8.35104 35.0499 6.85104 38.0499 6.85104C42.3499 6.85104 46.5499 10.251 46.5499 16.251V16.351C46.5499 22.351 42.4499 25.751 38.0499 25.751C35.0499 25.751 33.1499 24.251 31.8499 22.551ZM42.2499 16.351C42.2499 12.751 39.8499 10.451 37.0499 10.451C34.2499 10.451 31.7499 12.751 31.7499 16.251V16.351C31.7499 19.851 34.2499 22.151 37.0499 22.151C39.9499 22.151 42.2499 19.951 42.2499 16.351Z" fill="#364958"/>
<path d="M48.75 18.851V7.25104H52.95V17.551C52.95 20.351 54.35 21.951 56.85 21.951C59.25 21.951 60.95 20.251 60.95 17.451V7.25104H65.15V25.451H60.95V22.651C59.75 24.351 58.05 25.851 55.25 25.851C51.15 25.751 48.75 23.051 48.75 18.851Z" fill="#364958"/>
<path d="M67.55 16.3511C67.55 11.0511 71.2501 6.85107 76.4501 6.85107C82.2501 6.85107 85.1501 11.3511 85.1501 16.6511C85.1501 17.0511 85.15 17.4511 85.05 17.8511H71.6501C72.0501 20.8511 74.1501 22.4511 76.8501 22.4511C78.8501 22.4511 80.35 21.6511 81.75 20.2511L84.1501 22.4511C82.4501 24.5511 80.05 25.8511 76.75 25.8511C71.65 25.8511 67.55 22.0511 67.55 16.3511ZM81.05 15.0511C80.75 12.3511 79.1501 10.2511 76.4501 10.2511C73.9501 10.2511 72.15 12.2511 71.75 15.0511H81.05Z" fill="#364958"/>
<path d="M106.75 25.451V23.251C105.55 24.751 103.65 25.851 100.85 25.851C97.4501 25.851 94.3501 23.851 94.3501 20.251V20.151C94.3501 16.151 97.4501 14.151 101.75 14.151C103.95 14.151 105.35 14.451 106.75 14.951V14.651C106.75 12.151 105.15 10.751 102.25 10.751C100.25 10.751 98.7501 11.151 97.0501 11.851L95.9501 8.55103C97.9501 7.65103 99.9501 7.05103 102.85 7.05103C108.25 7.05103 110.85 9.85104 110.85 14.751V25.551H106.75V25.451ZM106.85 17.851C105.75 17.451 104.35 17.151 102.65 17.151C100.05 17.151 98.4501 18.251 98.4501 19.951V20.051C98.4501 21.751 99.9501 22.751 101.95 22.751C104.75 22.751 106.75 21.251 106.75 18.951V17.851H106.85Z" fill="#364958"/>
<path d="M114.05 7.25107H118.25V10.2511C119.55 8.35107 121.45 6.85107 124.45 6.85107C128.75 6.85107 132.95 10.2511 132.95 16.2511V16.3511C132.95 22.3511 128.85 25.7511 124.45 25.7511C121.45 25.7511 119.55 24.2511 118.25 22.5511V30.8511H114.05V7.25107ZM128.55 16.3511C128.55 12.7511 126.15 10.4511 123.35 10.4511C120.55 10.4511 118.05 12.7511 118.05 16.2511V16.3511C118.05 19.8511 120.55 22.1511 123.35 22.1511C126.25 22.1511 128.55 19.9511 128.55 16.3511Z" fill="#364958"/>
<path d="M135.35 7.25107H139.55V10.2511C140.85 8.35107 142.75 6.85107 145.75 6.85107C150.05 6.85107 154.25 10.2511 154.25 16.2511V16.3511C154.25 22.3511 150.15 25.7511 145.75 25.7511C142.75 25.7511 140.85 24.2511 139.55 22.5511V30.8511H135.35V7.25107ZM149.85 16.3511C149.85 12.7511 147.45 10.4511 144.65 10.4511C141.85 10.4511 139.35 12.7511 139.35 16.2511V16.3511C139.35 19.8511 141.85 22.1511 144.65 22.1511C147.55 22.1511 149.85 19.9511 149.85 16.3511Z" fill="#364958"/>
<path d="M95.3499 32.051C93.3499 32.051 91.8499 30.451 91.8499 28.551V0.45105H87.95V22.851V28.551C87.95 32.651 91.2499 35.951 95.3499 35.951C99.3499 35.951 102.55 32.8511 102.75 28.951C102.05 29.0511 101.45 29.151 100.85 29.151C100.15 29.151 99.5499 29.0511 98.8499 28.951C98.6499 30.6511 97.1499 32.051 95.3499 32.051Z" fill="#364958"/>
</svg>
