<svg width="96" height="127" viewBox="0 0 96 127" fill="none" xmlns="http://www.w3.org/2000/svg">
<path d="M88.9097 29.4317C83.5714 28.9109 83.311 45.8372 81.6184 54.5607C79.9258 63.2842 78.4935 64.7164 77.7123 63.5446C76.9311 62.3728 77.3217 44.0143 78.1029 35.6814C78.8841 27.3485 80.4466 14.3282 74.5875 13.9376C68.8586 13.547 68.2076 26.8276 66.9055 38.025C65.6035 49.2224 66.9056 60.0292 64.1713 60.0292C61.4371 60.0292 61.4371 18.6249 61.3069 15.5001C61.1767 12.3752 61.1767 2.34964 56.0988 2.21944C51.1511 2.08924 50.3699 10.943 49.9793 15.5001C49.7189 20.0571 49.3283 33.0774 49.7189 43.7539C50.1095 54.5607 50.2397 57.9459 48.5471 58.3365C46.8544 58.7271 42.4276 34.119 40.9953 25.0048C39.6933 16.0209 36.1779 8.07856 30.9698 10.5524C25.7617 13.0262 29.798 29.9525 31.4906 39.8479C33.1832 49.613 36.1779 66.6695 35.7873 73.5702C35.3966 80.4709 36.4383 86.8508 32.9228 86.0696C32.1416 85.9394 31.4906 85.9394 30.9698 85.8092C28.4959 85.679 23.2879 81.2521 20.163 77.3461C17.1684 73.44 10.2676 71.3567 5.84077 71.3567C1.4139 71.3567 -1.32034 73.9608 7.14279 80.6011C15.6059 87.1112 24.4597 99.6106 27.3241 107.553C30.1886 115.495 31.3604 120.703 40.0839 123.568C51.6719 127.083 71.3324 123.438 75.3687 120.313C79.405 117.188 81.358 113.542 84.4828 100.262C86.0453 93.6213 88.1285 80.7313 89.6909 69.9245C89.6909 69.9245 92.8158 49.613 93.2064 41.6707C93.7272 33.8585 94.3782 29.9525 88.9097 29.4317Z" fill="#87BBA1" stroke="white" stroke-width="3.25505" stroke-miterlimit="10"/>
</svg>
