<svg width="832" height="711" viewBox="0 0 832 711" fill="none" xmlns="http://www.w3.org/2000/svg">
<path fill-rule="evenodd" clip-rule="evenodd" d="M213.703 207.616C218.379 208.318 223.757 208.904 229.837 209.372L227.733 233.26C219.081 235.836 211.364 237.125 204.583 237.125C195.697 237.125 189.149 235.017 184.94 230.801C180.731 226.351 178.626 219.677 178.626 210.777V5.26941L213.703 0V207.616ZM139.953 229.747C131.535 233.026 122.648 235.368 113.295 236.773C103.941 238.178 92.9512 238.881 80.3237 238.881C58.1089 238.881 41.3896 235.602 30.165 229.045C18.9409 222.253 11.1074 210.895 6.66455 194.969C2.22168 178.809 0 155.156 0 124.007C0 92.625 2.22168 68.854 6.66455 52.6943C11.3413 36.5348 19.5254 25.1761 31.2173 18.6187C43.1436 12.0612 60.6812 8.78235 83.8315 8.78235C91.7817 8.78235 100.785 9.48499 110.84 10.8901C121.128 12.2953 129.313 14.0519 135.393 16.1595L130.833 44.9658C122.648 43.0923 113.178 41.5699 102.421 40.399C91.665 39.228 82.896 38.6426 76.1147 38.6426C61.8506 38.6426 51.7954 40.399 45.9492 43.912C40.3374 47.4249 37.5312 54.5679 37.5312 65.3409V204.454C49.457 207.967 63.3706 209.724 79.2715 209.724C97.5107 209.724 116.569 206.796 136.445 200.941L139.953 229.747ZM314.119 55.1624C310.157 55.5486 306.206 56.014 302.264 56.5586C288.935 58.4321 276.775 61.2426 265.785 64.9897L272.449 101.524C295.131 95.6696 316.528 92.7421 336.638 92.7421C341.234 92.7421 345.38 92.8817 349.074 93.16C335.395 82.4581 323.562 69.6205 314.114 55.1632C314.116 55.1632 314.118 55.1624 314.119 55.1624ZM363.295 103.098V125.061H355.579C328.454 125.061 308.109 126.701 294.547 129.979C280.984 133.024 271.514 138.528 266.135 146.49C260.757 154.453 258.068 166.28 258.068 181.971C258.068 201.644 262.511 215.93 271.397 224.829C280.517 233.495 295.249 237.827 315.592 237.827C338.976 237.827 359.32 230.567 376.625 216.047L390.304 233.612H415.559V124.064C396.691 120.087 379.055 112.892 363.295 103.098ZM357.683 197.428C353.942 199.77 347.043 200.941 336.989 200.941H306.122V171.432C306.122 164.641 307.875 160.074 311.383 157.732C315.125 155.156 322.14 153.867 332.429 153.867H363.295V184.079C363.295 190.636 361.425 195.086 357.683 197.428ZM583.48 56.5101C589.342 57.9523 594.478 59.9584 598.896 62.5306C608.951 68.1514 616.083 77.6364 620.292 90.9856C624.735 104.101 626.957 122.368 626.957 145.788C626.957 169.207 624.735 187.709 620.292 201.292C615.849 214.642 608.6 224.244 598.545 230.099C588.724 235.954 575.044 238.881 557.506 238.881C539.267 238.881 525.236 236.422 515.415 231.504V289.116L463.152 293.683V127.054C481.523 125.498 499.139 120.764 515.415 113.418V198.482H556.103C561.949 198.482 565.808 197.896 567.678 196.726C569.783 195.32 570.835 192.744 570.835 188.997V94.1472L547.685 94.1476C561.439 83.6533 573.522 71.0526 583.39 56.873L583.138 56.7947L583.48 56.5101ZM803.048 62.5306C792.993 56.6757 779.197 53.7482 761.659 53.7482C746.927 53.7482 734.884 55.3876 725.531 58.6664C716.177 61.7109 708.694 66.8633 703.082 74.1234L692.559 57.9637H667.305V293.683L719.568 289.116V231.504C729.389 236.422 743.419 238.881 761.659 238.881C779.197 238.881 792.876 235.954 802.698 230.099C812.752 224.244 820.001 214.642 824.445 201.292C828.887 187.709 831.109 169.207 831.109 145.788C831.109 122.368 828.887 104.101 824.445 90.9856C820.236 77.6364 813.103 68.1514 803.048 62.5306ZM734.65 94.1472H774.988V188.997C774.988 192.744 773.935 195.32 771.831 196.726C769.959 197.896 766.102 198.482 760.255 198.482H719.568V102.578C719.568 99.2996 720.62 97.0747 722.725 95.9037C724.829 94.7327 728.804 94.1472 734.65 94.1472Z" transform="translate(0.881348 416.57)" fill="#FC5130"/>
<path d="M77.5048 89.4577V199H70.0617L66.502 192.528C64.3446 195.872 61.2164 198.191 57.1173 199.485C53.1261 200.78 47.5708 201.427 40.4514 201.427C31.8217 201.427 25.3495 200.294 21.0347 198.029C16.8278 195.764 13.8613 191.665 12.1354 185.732C10.5174 179.799 9.70832 170.738 9.70832 158.549C9.70832 147.114 10.5174 138.431 12.1354 132.498C13.7535 126.565 16.5581 122.412 20.5493 120.039C24.5405 117.666 30.4194 116.479 38.1861 116.479C43.6875 116.479 48.2719 116.803 51.9395 117.45C55.715 117.989 58.8432 118.96 61.3242 120.363V91.3994L77.5048 89.4577ZM61.3242 129.747H34.1409C31.2284 129.747 29.2328 130.017 28.1541 130.556C27.1833 131.096 26.6979 132.174 26.6979 133.792V188.159H53.8812C56.7937 188.159 58.7354 187.889 59.7062 187.35C60.7849 186.811 61.3242 185.732 61.3242 184.114V129.747Z" transform="translate(60.2759 202.562)" fill="#FC5130"/>
<path fill-rule="evenodd" clip-rule="evenodd" d="M22.3025 0L26.1554 5.14505C50.1352 47.1807 97.5602 75.3685 151.05 75.3685C199.386 75.3685 241.923 51.9668 267.368 16.4231L270.069 12.6509L294.902 20.3868L289.885 27.5955C259.227 71.6512 207.927 101.094 151.05 101.094C88.2708 101.094 32.3702 67.8966 3.85288 17.9068L-7.34881e-06 12.7618L22.3025 0Z" transform="translate(299.652 400.644)" fill="#FC5130"/>
<path fill-rule="evenodd" clip-rule="evenodd" d="M26.1937 11.1663C53.9998 -8.36115 92.3475 -1.6153 111.845 26.2336L142.058 69.3869C133.601 82.6952 122.354 80.0522 114.39 74.6762L90.8143 41.0029C79.4608 24.7868 57.1317 20.8588 40.9403 32.2294C24.7493 43.6 20.827 65.9634 32.1805 82.1795L102.893 183.179C103.21 183.666 103.534 184.143 103.865 184.611C114.046 199.007 115.011 202.774 117.049 205.825C119.371 209.303 123.087 211.85 143.441 228.155C121.445 231.056 98.6307 221.9 85.012 202.448L11.1492 96.9489C-8.34832 69.1 -1.61297 30.6939 26.1937 11.1663Z" transform="translate(220.658 219.893)" fill="#FC5130"/>
<path fill-rule="evenodd" clip-rule="evenodd" d="M120.589 15.9191C133.8 -1.6847 158.759 -5.2295 176.336 8.00182C184.705 14.3019 189.891 23.2681 191.603 32.8346L194.966 28.4363C208.299 10.9971 233.174 7.57787 250.706 20.7746C266.117 32.3755 270.777 52.9884 262.871 69.7939C272.822 68.4983 283.267 70.9452 291.922 77.4607C309.5 90.692 313.039 115.689 299.828 133.292L294.447 140.463C303.947 139.463 313.843 141.912 322.108 148.133C339.431 161.173 342.918 185.808 329.899 203.156L251.79 307.238C246.714 314.001 239.958 318.856 232.494 321.592L234.479 316.421L237.375 303.994C238.883 302.669 240.276 301.172 241.523 299.51L319.632 195.428C328.391 183.758 326.044 167.187 314.392 158.416C302.454 149.429 285.456 152.144 276.9 164.403L268.315 176.705C266.284 179.616 262.28 180.327 259.373 178.292C256.466 176.257 255.757 172.248 257.789 169.336L264.384 159.886C264.59 159.113 264.945 158.366 265.455 157.687L289.562 125.564C298.511 113.639 296.113 96.7056 284.206 87.7425C272.299 78.7795 255.392 81.1807 246.442 93.1062L230.789 113.964C228.658 116.803 224.633 117.376 221.798 115.241C218.963 113.107 218.392 109.075 220.522 106.236L236.176 85.3779C237.415 83.7274 238.756 82.2006 240.186 80.7994L239.802 80.5105L248.374 69.088C257.373 57.0972 254.962 40.0698 242.989 31.0572C231.092 22.1011 214.211 24.4217 205.163 36.2562L185.895 61.4584C185.376 62.2635 184.825 63.0555 184.241 63.8336L169.788 83.0931C167.657 85.9325 163.631 86.5046 160.796 84.3706C157.961 82.2364 157.39 78.2042 159.521 75.3655L172.031 58.6949L171.906 58.5981L175.347 54.0969C182.632 42.344 179.872 26.7544 168.62 18.2838C156.712 9.32067 139.805 11.7218 130.855 23.6473L13.2969 180.296C8.64697 180.173 4.01367 178.843 0 176.606L120.589 15.9191Z" transform="translate(339.199 109.948)" fill="#FC5130" stroke="#FC5130" stroke-width="12.8528" stroke-linecap="round" stroke-linejoin="round"/>
<ellipse cx="11.5587" cy="11.5764" rx="11.5587" ry="11.5764" transform="translate(396.762 395.5)" fill="#FC5130"/>
<path fill-rule="evenodd" clip-rule="evenodd" d="M151.603 2.61305C157.256 6.90451 158.364 14.9726 154.079 20.6337L94.0234 99.9776C67.8469 140.647 25.7706 136.291 7.95638 128.944C1.39766 126.24 -1.72992 118.722 0.970728 112.153C3.67138 105.584 11.1776 102.452 17.7363 105.157C28.9659 109.788 55.6495 112.458 72.6476 85.706L72.9301 85.2613L133.61 5.09296C137.895 -0.568123 145.951 -1.67842 151.603 2.61305Z" transform="translate(435.286 308.035)" fill="#FC5130"/>
<path fill-rule="evenodd" clip-rule="evenodd" d="M111.845 26.2336C92.3475 -1.6153 53.9998 -8.36115 26.1937 11.1663C-1.61297 30.6939 -8.34832 69.1 11.1492 96.9489L31.6458 126.224L50.8402 108.831L32.1805 82.1795C20.827 65.9634 24.7493 43.6 40.9403 32.2294C57.1317 20.8588 79.4608 24.7868 90.8143 41.0029L114.389 74.6756C122.353 80.0518 133.601 82.6952 142.057 69.3868L111.845 26.2336Z" transform="translate(237.192 116.993)" fill="#FC5130"/>
<path fill-rule="evenodd" clip-rule="evenodd" d="M176.336 8.00182C158.759 -5.2295 133.8 -1.6847 120.589 15.9191L0 176.606C4.01318 178.843 8.64697 180.173 13.2969 180.296L130.855 23.6473C139.805 11.7218 156.712 9.32067 168.62 18.2838C179.872 26.7544 182.632 42.344 175.347 54.0969L171.906 58.5981L172.031 58.6949L159.521 75.3655C157.39 78.2042 157.961 82.2364 160.796 84.3706C163.631 86.5046 167.657 85.9325 169.788 83.0931L184.241 63.8336C184.825 63.0555 185.376 62.2635 185.895 61.4584L205.163 36.2562C214.211 24.4217 231.092 22.1011 242.989 31.0572C254.962 40.0698 257.373 57.0972 248.374 69.088L239.802 80.5105L240.186 80.7994C238.756 82.2006 237.415 83.7274 236.176 85.3779L220.522 106.236C218.392 109.075 218.963 113.107 221.798 115.241C224.633 117.376 228.658 116.803 230.789 113.964L246.442 93.1062C255.392 81.1807 272.299 78.7795 284.206 87.7425C296.113 96.7056 298.511 113.639 289.562 125.564L265.455 157.687C264.945 158.366 264.59 159.113 264.384 159.886L257.789 169.336C255.757 172.248 256.466 176.257 259.373 178.292C262.28 180.327 266.284 179.616 268.315 176.705L276.9 164.403C285.456 152.144 302.454 149.429 314.392 158.416C326.044 167.187 328.391 183.758 319.632 195.428L284.277 242.539L293.063 252.241L329.899 203.156C342.918 185.808 339.431 161.173 322.108 148.133C313.843 141.912 303.947 139.463 294.447 140.463L299.828 133.292C313.039 115.689 309.5 90.692 291.922 77.4607C283.267 70.9452 272.822 68.4983 262.871 69.7939C270.777 52.9884 266.117 32.3755 250.706 20.7746C233.174 7.57787 208.299 10.9971 194.966 28.4363L191.603 32.8346C189.891 23.2681 184.705 14.3019 176.336 8.00182Z" transform="translate(355.731 7.04822)" fill="#FC5130" stroke="#FC5130" stroke-width="12.8528" stroke-linecap="round" stroke-linejoin="round"/>
</svg>
