<svg width="404" height="130" viewBox="0 0 404 130" fill="none" xmlns="http://www.w3.org/2000/svg">
<path d="M295.264 128.294C303.804 127.697 310.568 124.935 310.371 122.125C310.175 119.315 303.093 117.521 294.553 118.119C286.013 118.716 279.249 121.478 279.446 124.287C279.642 127.097 286.724 128.891 295.264 128.294Z" fill="#E0E0E0"/>
<path d="M41.199 35.5008C41.199 41.4008 45.199 42.5008 46.999 42.5008C50.399 42.5008 52.499 39.9008 52.499 37.6008C52.499 34.9008 50.199 34.1008 41.499 30.8008C37.599 29.3008 27.7991 25.8008 27.7991 16.1008C27.7991 5.80078 38.099 0.300781 47.499 0.300781C55.199 0.300781 66.099 3.90078 66.299 16.2008H52.099C51.799 14.5008 51.299 11.2008 46.999 11.2008C44.499 11.2008 42.099 12.8008 42.099 15.2008C42.099 17.6008 43.599 18.2008 53.699 22.3008C64.099 26.6008 66.799 31.0008 66.799 37.0008C66.799 45.2008 62.0991 53.4008 47.2991 53.4008C32.5991 53.4008 26.699 45.5008 27.099 35.5008H41.199Z" fill="#746BA9"/>
<path d="M75.4988 22.8008H69.2988V14.1008H75.4988V1.30078H88.0988V14.1008H94.1988V22.8008H88.0988V52.5008H75.4988V22.8008Z" fill="#746BA9"/>
<path d="M108.399 37.2008C108.899 41.3008 113.199 44.0008 118.099 44.0008C122.099 44.0008 124.199 42.4008 125.699 40.4008H138.599C136.599 44.7008 133.599 48.0008 129.999 50.2008C126.499 52.5008 122.399 53.7008 117.999 53.7008C105.999 53.7008 95.6992 44.8008 95.6992 33.4008C95.6992 22.7008 104.899 12.8008 117.699 12.8008C124.099 12.8008 129.699 15.1008 133.599 18.9008C138.899 24.1008 140.499 30.2008 139.499 37.3008H108.399V37.2008ZM127.299 28.5008C126.999 26.7008 124.399 22.4008 117.899 22.4008C111.399 22.4008 108.799 26.7008 108.499 28.5008H127.299Z" fill="#746BA9"/>
<path d="M147 14.1008H158.8V18.3008C161.5 15.4008 165.7 12.8008 172.1 12.8008C187 12.8008 192.6 24.8008 192.6 33.7008C192.6 44.8008 184.1 53.8008 172.2 53.8008C164.6 53.8008 161.1 50.5008 159.6 49.0008V52.5008V65.3008H147V14.1008ZM180.1 33.2008C180.1 28.7008 176.5 23.5008 169.6 23.5008C166.6 23.5008 163.9 24.6008 162 26.4008C160.2 28.1008 159 30.6008 159 33.4008C159 36.1008 160.1 38.5008 162 40.2008C163.9 41.9008 166.5 43.0008 169.5 43.0008C176.1 43.0008 180.1 38.1008 180.1 33.2008Z" fill="#746BA9"/>
<path d="M217.6 24.9008C217.5 24.1008 217.4 22.0008 213.7 22.0008C211.1 22.0008 210.1 23.5008 210.1 24.6008C210.1 26.3008 213.2 27.5008 216.5 28.4008C223.6 30.2008 231.2 32.1008 231.2 40.4008C231.2 48.8008 223.4 53.8008 214.1 53.8008C207.7 53.8008 198.1 51.2008 197 41.1008H209.5C210 44.6008 213.7 44.6008 214.3 44.6008C216.4 44.6008 218.7 43.5008 218.7 41.6008C218.7 39.0008 215.6 38.6008 207.6 35.8008C202.1 34.2008 197.6 31.0008 197.6 25.8008C197.6 17.8008 205.2 12.8008 213.9 12.8008C219.4 12.8008 229 14.8008 230 24.9008H217.6Z" fill="#746BA9"/>
<path d="M0.199219 73.5007H11.9992V77.8007C13.1992 75.7007 15.3992 72.2007 22.6992 72.2007V83.7007H22.1992C15.7992 83.7007 12.6992 85.8007 12.6992 91.2007V111.801H0.199219V73.5007Z" fill="#575657"/>
<path d="M36.8992 96.7008C37.3992 100.801 41.6992 103.501 46.5992 103.501C50.5992 103.501 52.6992 101.901 54.1992 99.9008H67.0992C65.0992 104.201 62.0992 107.501 58.4992 109.701C54.9992 112.001 50.8992 113.201 46.4992 113.201C34.4992 113.201 24.1992 104.301 24.1992 92.9008C24.1992 82.2008 33.3992 72.3008 46.1992 72.3008C52.5992 72.3008 58.1992 74.6008 62.0992 78.4008C67.3992 83.6008 68.9992 89.7008 67.9992 96.8008H36.8992V96.7008ZM55.7992 88.0008C55.4992 86.2008 52.8992 81.9008 46.3992 81.9008C39.8992 81.9008 37.2992 86.2008 36.9992 88.0008H55.7992Z" fill="#575657"/>
<path d="M75.5 60.7007H88.1V111.901H75.5V60.7007Z" fill="#575657"/>
<path d="M95.1992 92.6008C95.1992 83.3008 102.499 72.3008 117.799 72.3008C133.099 72.3008 140.399 83.3008 140.399 92.7008C140.399 102.101 133.099 113.101 117.799 113.101C102.499 113.101 95.1992 102.101 95.1992 92.6008ZM107.799 92.7008C107.799 98.2008 112.399 102.301 117.899 102.301C123.399 102.301 127.999 98.2008 127.999 92.6008C127.999 87.0008 123.399 82.9008 117.899 82.9008C112.399 83.0008 107.799 87.1008 107.799 92.7008Z" fill="#575657"/>
<path d="M190 97.3007C187.7 106.001 179.3 113.101 168 113.101C155.3 113.101 145.5 104.001 145.5 92.6007C145.5 81.3007 155.1 72.2007 167.7 72.2007C178.8 72.2007 187.8 78.9007 190 88.3007H177.3C175.9 85.7007 173.4 82.9007 168.2 82.9007C165.2 82.8007 162.7 83.8007 160.9 85.6007C159.2 87.4007 158.2 89.9007 158.2 92.7007C158.2 98.3007 162.2 102.401 168.2 102.401C173.4 102.401 175.9 99.6007 177.3 97.3007H190Z" fill="#575657"/>
<path d="M241.1 111.901H228.5V107.801C226.2 111.501 221 113.301 216.1 113.301C202.8 113.301 195 103.801 195 92.8008C195 80.2008 204.9 72.3008 216.1 72.3008C223 72.3008 226.9 75.3008 228.5 77.7008V73.6008H241.1V111.901ZM207.5 92.9008C207.5 96.4008 210.4 102.501 217.9 102.501C222.4 102.501 225.1 100.601 226.7 98.2008C227.8 96.7008 228.3 95.0008 228.4 93.3008C228.5 91.6008 228.2 89.8008 227.3 88.3008C225.9 85.7008 223.1 83.0008 217.8 83.0008C210.7 82.9008 207.5 88.4008 207.5 92.9008Z" fill="#575657"/>
<path d="M252.7 82.2007H246.5V73.5007H252.7V60.7007H265.3V73.5007H271.4V82.2007H265.3V111.901H252.7V82.2007Z" fill="#575657"/>
<path d="M310.699 92.6008C310.699 83.3008 317.999 72.3008 333.299 72.3008C348.599 72.3008 355.899 83.3008 355.899 92.7008C355.899 102.101 348.599 113.101 333.299 113.101C317.999 113.101 310.699 102.101 310.699 92.6008ZM323.299 92.7008C323.299 98.2008 327.899 102.301 333.399 102.301C338.899 102.301 343.499 98.2008 343.499 92.6008C343.499 87.0008 338.899 82.9008 333.399 82.9008C327.899 82.9008 323.299 87.1008 323.299 92.7008Z" fill="#575657"/>
<path d="M363.1 73.5007H374.8V77.6007C376.2 75.7007 378.9 72.2007 386.4 72.2007C400.6 72.2007 402 82.7007 402 87.9007V111.901H389.4V91.0007C389.4 86.8007 388.4 83.0007 382.8 83.0007C376.6 83.0007 375.6 87.1007 375.6 91.0007V111.901H363V73.5007H363.1Z" fill="#575657"/>
<path d="M307.5 115.501C308 114.901 308.3 114.301 308.2 113.701C308.1 112.401 306.8 111.401 304.6 110.601C297.2 101.401 299.2 78.3006 299.2 78.3006H299.1C301.3 77.4006 302.7 76.2006 302.6 75.0006C302.5 73.7006 300.9 72.7006 298.4 72.2006C299.9 70.4006 300.7 68.0006 300.5 65.5006C300.1 60.2006 295.5 56.1006 290.1 56.5006C284.8 56.9006 280.7 61.5006 281.1 66.9006C281.3 69.4006 282.4 71.7006 284.1 73.3006C281.7 74.2006 280.2 75.4006 280.3 76.7006C280.4 77.9006 281.9 78.9006 284.2 79.5006H284.1C284.1 79.5006 289.2 102.001 283.2 112.201C281.2 113.201 280 114.501 280.1 115.701C280.1 116.301 280.5 116.901 281.1 117.401C280.6 118.001 280.3 118.601 280.4 119.201C280.6 122.001 287 123.901 294.7 123.301C302.4 122.801 308.5 120.001 308.3 117.201C308.5 116.601 308.1 116.001 307.5 115.501Z" fill="#746BA9"/>
<path d="M292.1 59.9006C293.2 59.8006 294.4 60.4006 295.3 61.2006C296.2 62.0006 296.8 63.0006 297.2 64.2006C297.5 65.4006 297.5 66.6006 297.1 67.8006C296.7 68.9006 295.9 69.8006 295 70.5006C295.6 69.5006 296.1 68.6006 296.4 67.6006C296.6 66.6006 296.6 65.5006 296.3 64.6006C296 63.6006 295.5 62.7006 294.8 61.9006C294 60.9006 293.2 60.2006 292.1 59.9006Z" fill="url(#paint0_linear)"/>
<path d="M298.3 73.5005C298.7 73.6005 299.1 73.7005 299.4 73.9005C299.7 74.1005 300.1 74.2005 300.4 74.7005C300.5 74.9005 300.5 75.3005 300.4 75.5005C300.3 75.7005 300.1 75.9005 299.9 76.0005C299.6 76.3005 299.2 76.5005 298.9 76.7005C297.4 77.4005 295.9 77.7005 294.3 77.9005C291.2 78.2005 288.1 78.1005 285 77.5005L289.6 77.3005C291.1 77.2005 292.6 77.1005 294.1 77.0005C295.6 76.8005 297.1 76.6005 298.4 76.1005C298.7 76.0005 299.1 75.8005 299.3 75.6005C299.6 75.4005 299.8 75.2005 299.7 75.0005C299.6 74.8005 299.4 74.5005 299.1 74.2005C298.9 73.9005 298.6 73.7005 298.3 73.5005Z" fill="url(#paint1_linear)"/>
<path d="M295.799 81.2007L296.399 88.9007C296.599 91.5007 296.899 94.1007 297.199 96.6007C297.399 97.9007 297.599 99.1007 297.799 100.401C298.099 101.601 298.399 102.901 298.799 104.101C299.599 106.501 300.499 109.001 301.499 111.301C301.599 111.401 301.499 111.601 301.499 111.701C300.999 112.301 300.499 112.601 299.999 112.801C299.499 113.101 298.899 113.201 298.399 113.401C297.299 113.701 296.099 113.801 294.999 113.901C292.699 114.001 290.499 113.801 288.299 113.401C289.399 113.401 290.499 113.501 291.699 113.501C292.799 113.501 293.899 113.401 294.999 113.401C296.099 113.301 297.199 113.101 298.199 112.801C298.699 112.601 299.199 112.501 299.699 112.201C300.099 112.001 300.599 111.601 300.799 111.301V111.701C299.699 109.301 298.799 106.901 297.999 104.401C297.199 101.901 296.599 99.3007 296.399 96.7007C296.099 94.1007 295.999 91.5007 295.899 88.9007C295.699 86.4007 295.699 83.8007 295.799 81.2007Z" fill="url(#paint2_linear)"/>
<path d="M305 113.9C305.3 114.3 305.3 114.7 305.2 115.2C305.1 115.7 304.8 116.1 304.4 116.4C303.7 117 302.8 117.3 302 117.6C300.3 118.2 298.6 118.5 296.8 118.7C295 118.9 293.2 118.8 291.5 118.6C289.7 118.4 288 118 286.4 117.4C288.1 117.7 289.9 117.8 291.6 117.8C293.3 117.8 295.1 117.8 296.8 117.6C298.5 117.4 300.2 117.2 301.9 116.8C302.7 116.6 303.6 116.4 304.3 116C304.6 115.8 305 115.5 305.1 115.1C305.2 114.8 305.2 114.3 305 113.9Z" fill="url(#paint3_linear)"/>
<path d="M0 125.301H269.4" stroke="#575657" stroke-miterlimit="10"/>
<path d="M317.9 125.301H403.5" stroke="#575657" stroke-miterlimit="10"/>
<defs>
<linearGradient id="paint0_linear" x1="291.969" y1="65.242" x2="297.367" y2="64.8645" gradientUnits="userSpaceOnUse">
<stop stop-color="white"/>
<stop offset="1" stop-color="white"/>
</linearGradient>
<linearGradient id="paint1_linear" x1="284.433" y1="76.5354" x2="300.703" y2="75.3976" gradientUnits="userSpaceOnUse">
<stop stop-color="white"/>
<stop offset="1" stop-color="white"/>
</linearGradient>
<linearGradient id="paint2_linear" x1="286.656" y1="98.2144" x2="300.615" y2="97.2383" gradientUnits="userSpaceOnUse">
<stop stop-color="white"/>
<stop offset="1" stop-color="white"/>
</linearGradient>
<linearGradient id="paint3_linear" x1="285.878" y1="117.324" x2="305.814" y2="115.93" gradientUnits="userSpaceOnUse">
<stop stop-color="white"/>
<stop offset="1" stop-color="white"/>
</linearGradient>
</defs>
</svg>
