<svg width="184" height="179" viewBox="0 0 184 179" fill="none" xmlns="http://www.w3.org/2000/svg">
<path fill-rule="evenodd" clip-rule="evenodd" d="M61.3347 102.932L62.293 104.213C68.2578 114.675 80.0544 121.69 93.3596 121.69C105.383 121.69 115.963 115.866 122.293 107.02L122.964 106.081L129.141 108.006L127.894 109.8C120.268 120.765 107.507 128.093 93.3596 128.093C77.7437 128.093 63.8389 119.831 56.7455 107.389L55.7871 106.109L61.3347 102.932Z" fill="#FC5130"/>
<path fill-rule="evenodd" clip-rule="evenodd" d="M42.6541 60.7281C49.5707 55.868 59.1093 57.5469 63.9591 64.478L71.4728 75.2161C69.3697 78.5283 66.5724 77.8713 64.5915 76.5337L58.7279 68.1539C55.9039 64.118 50.3496 63.1404 46.3222 65.9703C42.2948 68.8003 41.3192 74.3661 44.1432 78.402L61.7232 103.526C61.8046 103.651 61.8876 103.774 61.9724 103.894C64.505 107.477 64.745 108.414 65.2518 109.174C65.8296 110.039 66.7543 110.674 71.8186 114.733C66.3473 115.455 60.6722 113.176 57.2846 108.335L38.912 82.0779C34.0621 75.1468 35.7375 65.5881 42.6541 60.7281Z" fill="#FC5130"/>
<path fill-rule="evenodd" clip-rule="evenodd" d="M95.6169 34.5445C98.9031 30.1632 105.111 29.281 109.483 32.574C111.565 34.142 112.855 36.3735 113.281 38.7545L114.117 37.6598C117.434 33.3195 123.621 32.4685 127.982 35.753C131.816 38.6402 132.975 43.7704 131.008 47.953C133.484 47.6305 136.082 48.2395 138.235 49.8611C142.607 53.1542 143.487 59.3754 140.201 63.7567L138.863 65.5413C141.226 65.2925 143.687 65.9019 145.743 67.4502C150.052 70.6956 150.919 76.8268 147.681 81.1446L128.252 107.049C126.99 108.731 125.31 109.939 123.454 110.62L123.947 109.335L124.668 106.239C125.043 105.91 125.389 105.538 125.698 105.125L145.127 79.2212C147.306 76.3167 146.722 72.1924 143.824 70.0094C140.854 67.7727 136.626 68.4484 134.498 71.4995L132.363 74.5613C131.857 75.2859 130.861 75.4626 130.138 74.9562C129.415 74.4499 129.239 73.452 129.744 72.7273L131.385 70.3753C131.436 70.1829 131.524 69.997 131.651 69.828L137.647 61.8333C139.873 58.8654 139.277 54.6509 136.315 52.4201C133.353 50.1894 129.148 50.787 126.922 53.755L123.028 58.9462C122.498 59.6529 121.497 59.7953 120.792 59.2641C120.087 58.733 119.945 57.7294 120.475 57.0229L124.368 51.8316C124.676 51.4208 125.01 51.0408 125.366 50.6921L125.27 50.6202L127.402 47.7773C129.641 44.793 129.041 40.5552 126.063 38.3121C123.103 36.0831 118.905 36.6607 116.654 39.6061L111.861 45.8784C111.732 46.0788 111.595 46.2759 111.45 46.4696L107.855 51.2629C107.325 51.9696 106.323 52.112 105.618 51.5809C104.913 51.0497 104.771 50.0462 105.301 49.3397L108.413 45.1907L108.381 45.1666L109.238 44.0463C111.05 41.1212 110.363 37.2412 107.564 35.133C104.602 32.9023 100.397 33.4999 98.1706 36.4679L68.9281 75.4561C67.7715 75.4253 66.6192 75.0939 65.6211 74.537L95.6169 34.5445Z" fill="#FC5130"/>
<path d="M109.483 32.574L110.838 30.7761L110.838 30.7761L109.483 32.574ZM95.6169 34.5445L93.8162 33.1939L93.8162 33.1939L95.6169 34.5445ZM113.281 38.7545L111.065 39.1507C111.222 40.0291 111.883 40.7318 112.751 40.942C113.618 41.1522 114.528 40.8302 115.069 40.1212L113.281 38.7545ZM114.117 37.6598L115.906 39.0265L115.906 39.0265L114.117 37.6598ZM127.982 35.753L126.628 37.5509L126.628 37.5509L127.982 35.753ZM131.008 47.953L128.971 46.9953C128.621 47.7396 128.705 48.6155 129.19 49.2799C129.675 49.9443 130.483 50.2913 131.299 50.185L131.008 47.953ZM138.235 49.8611L136.88 51.6591L136.88 51.6591L138.235 49.8611ZM140.201 63.7567L138.4 62.4061L138.4 62.4062L140.201 63.7567ZM138.863 65.5413L137.062 64.1908C136.525 64.907 136.463 65.8735 136.905 66.6521C137.347 67.4308 138.208 67.8736 139.098 67.7798L138.863 65.5413ZM145.743 67.4502L147.097 65.6523L147.097 65.6522L145.743 67.4502ZM147.681 81.1446L145.88 79.794L145.88 79.794L147.681 81.1446ZM128.252 107.049L130.053 108.399L130.053 108.399L128.252 107.049ZM123.454 110.62L121.353 109.814C121.036 110.638 121.231 111.571 121.851 112.2C122.47 112.829 123.401 113.038 124.229 112.733L123.454 110.62ZM123.947 109.335L126.049 110.142C126.086 110.045 126.116 109.947 126.14 109.846L123.947 109.335ZM124.668 106.239L123.182 104.549C122.829 104.859 122.582 105.272 122.476 105.729L124.668 106.239ZM125.698 105.125L127.499 106.476L127.499 106.476L125.698 105.125ZM145.127 79.2212L143.327 77.8706L143.327 77.8706L145.127 79.2212ZM143.824 70.0094L142.469 71.8073L142.469 71.8073L143.824 70.0094ZM134.498 71.4995L132.652 70.2118L132.652 70.2119L134.498 71.4995ZM132.363 74.5613L134.209 75.8491L134.209 75.849L132.363 74.5613ZM130.138 74.9562L131.43 73.1126L131.429 73.1124L130.138 74.9562ZM129.744 72.7273L127.898 71.4396L127.898 71.4397L129.744 72.7273ZM131.385 70.3753L133.231 71.663C133.381 71.4483 133.492 71.209 133.559 70.9561L131.385 70.3753ZM131.651 69.828L129.85 68.4775L129.85 68.4777L131.651 69.828ZM137.647 61.8333L135.847 60.4827L135.847 60.4827L137.647 61.8333ZM136.315 52.4201L137.669 50.6222L137.669 50.6222L136.315 52.4201ZM126.922 53.755L128.722 55.1056L128.723 55.1056L126.922 53.755ZM123.028 58.9462L121.228 57.5956L121.228 57.5956L123.028 58.9462ZM120.792 59.2641L119.437 61.062L119.437 61.062L120.792 59.2641ZM120.475 57.0229L122.275 58.3736L122.275 58.3735L120.475 57.0229ZM124.368 51.8316L122.567 50.481L122.567 50.481L124.368 51.8316ZM125.366 50.6921L126.942 52.2991C127.41 51.8401 127.654 51.1998 127.612 50.5457C127.569 49.8916 127.243 49.2885 126.72 48.8941L125.366 50.6921ZM125.27 50.6202L123.469 49.2696C122.725 50.2627 122.924 51.6713 123.916 52.4181L125.27 50.6202ZM127.402 47.7773L125.602 46.4267L125.602 46.4268L127.402 47.7773ZM126.063 38.3121L124.709 40.1101L124.709 40.1101L126.063 38.3121ZM116.654 39.6061L114.865 38.2394L114.865 38.2395L116.654 39.6061ZM111.861 45.8784L110.073 44.5118C110.036 44.5598 110.001 44.6093 109.968 44.6601L111.861 45.8784ZM111.45 46.4696L113.25 47.8202L113.251 47.8199L111.45 46.4696ZM107.855 51.2629L106.054 49.9124L106.054 49.9124L107.855 51.2629ZM105.618 51.5809L104.264 53.3788L104.264 53.3788L105.618 51.5809ZM105.301 49.3397L107.101 50.6904L107.102 50.6902L105.301 49.3397ZM108.413 45.1907L110.213 46.5412C110.953 45.5551 110.762 44.1574 109.785 43.4061L108.413 45.1907ZM108.381 45.1666L106.593 43.7999C105.84 44.7856 106.026 46.195 107.01 46.9511L108.381 45.1666ZM109.238 44.0463L111.026 45.413C111.071 45.3546 111.112 45.2941 111.151 45.2316L109.238 44.0463ZM107.564 35.133L108.918 33.3351L108.918 33.3351L107.564 35.133ZM98.1706 36.4679L99.9713 37.8185L99.9713 37.8185L98.1706 36.4679ZM68.9281 75.4561L68.8682 77.7062C69.5975 77.7256 70.291 77.3903 70.7287 76.8067L68.9281 75.4561ZM65.6211 74.537L63.8204 73.1865C63.4306 73.7062 63.2844 74.3689 63.4193 75.0044C63.5542 75.6399 63.9571 76.1861 64.5244 76.5027L65.6211 74.537ZM110.838 30.7761C105.47 26.7333 97.8486 27.8177 93.8162 33.1939L97.4176 35.8951C99.9575 32.5087 104.752 31.8287 108.129 34.372L110.838 30.7761ZM115.497 38.3583C114.975 35.441 113.391 32.6996 110.838 30.7761L108.129 34.372C109.739 35.5844 110.735 37.3061 111.065 39.1507L115.497 38.3583ZM112.329 36.2931L111.492 37.3878L115.069 40.1212L115.906 39.0265L112.329 36.2931ZM129.336 33.955C123.987 29.9256 116.396 30.9709 112.329 36.2932L115.906 39.0265C118.472 35.6681 123.256 35.0114 126.628 37.5509L129.336 33.955ZM133.045 48.9107C135.455 43.7845 134.039 37.4971 129.336 33.955L126.628 37.5509C129.592 39.7833 130.494 43.7563 128.971 46.9953L133.045 48.9107ZM139.589 48.0632C136.947 46.0734 133.753 45.3255 130.717 45.721L131.299 50.185C133.214 49.9356 135.216 50.4057 136.88 51.6591L139.589 48.0632ZM142.002 65.1073C146.032 59.7339 144.954 52.1038 139.589 48.0632L136.88 51.6591C140.26 54.2045 140.942 59.0169 138.4 62.4061L142.002 65.1073ZM140.663 66.8919L142.002 65.1072L138.4 62.4062L137.062 64.1908L140.663 66.8919ZM147.097 65.6522C144.568 63.7478 141.534 62.9967 138.627 63.3028L139.098 67.7798C140.917 67.5883 142.806 68.0561 144.389 69.2482L147.097 65.6522ZM149.482 82.4952C153.464 77.1853 152.399 69.6452 147.097 65.6523L144.389 69.2482C147.705 71.746 148.375 76.4683 145.88 79.794L149.482 82.4952ZM130.053 108.399L149.482 82.4952L145.88 79.794L126.451 105.698L130.053 108.399ZM124.229 112.733C126.483 111.907 128.523 110.439 130.053 108.399L126.451 105.698C125.457 107.023 124.138 107.972 122.679 108.507L124.229 112.733ZM125.556 111.427L126.049 110.142L121.846 108.529L121.353 109.814L125.556 111.427ZM126.14 109.846L126.86 106.75L122.476 105.729L121.755 108.825L126.14 109.846ZM123.898 103.775C123.681 104.063 123.441 104.321 123.182 104.549L126.154 107.93C126.644 107.499 127.096 107.013 127.499 106.476L123.898 103.775ZM143.327 77.8706L123.898 103.775L127.499 106.476L146.928 80.5718L143.327 77.8706ZM142.469 71.8073C144.375 73.2428 144.761 75.9583 143.327 77.8706L146.928 80.5718C149.851 76.6752 149.069 71.142 145.178 68.2114L142.469 71.8073ZM136.344 72.7872C137.743 70.7809 140.52 70.3389 142.469 71.8073L145.178 68.2114C141.188 65.2065 135.509 66.116 132.652 70.2118L136.344 72.7872ZM134.209 75.849L136.344 72.7871L132.652 70.2119L130.516 73.2737L134.209 75.849ZM128.847 76.7998C130.591 78.0213 132.992 77.5934 134.209 75.8491L130.516 73.2736C130.722 72.9783 131.132 72.904 131.43 73.1126L128.847 76.7998ZM127.898 71.4397C126.683 73.1812 127.106 75.5806 128.847 76.8L131.429 73.1124C131.725 73.3192 131.794 73.7228 131.59 74.0149L127.898 71.4397ZM129.538 69.0876L127.898 71.4396L131.59 74.015L133.231 71.663L129.538 69.0876ZM129.85 68.4777C129.548 68.8808 129.334 69.3288 129.21 69.7945L133.559 70.9561C133.538 71.037 133.501 71.1132 133.452 71.1784L129.85 68.4777ZM135.847 60.4827L129.85 68.4775L133.452 71.1786L139.448 63.1838L135.847 60.4827ZM134.961 54.2181C136.93 55.7012 137.329 58.5069 135.847 60.4827L139.448 63.1839C142.418 59.2239 141.624 53.6005 137.669 50.6222L134.961 54.2181ZM128.723 55.1056C130.202 53.1325 132.995 52.737 134.961 54.2181L137.669 50.6222C133.712 47.6417 128.093 48.4415 125.121 52.4045L128.723 55.1056ZM124.829 60.2968L128.722 55.1056L125.121 52.4044L121.228 57.5956L124.829 60.2968ZM119.437 61.062C121.138 62.3431 123.553 61.9981 124.829 60.2967L121.228 57.5956C121.444 57.3076 121.855 57.2474 122.146 57.4662L119.437 61.062ZM118.674 55.6722C117.4 57.3709 117.74 59.7834 119.437 61.062L122.146 57.4662C122.433 57.6826 122.489 58.0879 122.275 58.3736L118.674 55.6722ZM122.567 50.481L118.674 55.6723L122.275 58.3735L126.169 53.1822L122.567 50.481ZM123.789 49.0851C123.353 49.5132 122.944 49.9789 122.567 50.481L126.169 53.1822C126.408 52.8627 126.667 52.5684 126.942 52.2991L123.789 49.0851ZM123.916 52.4181L124.011 52.49L126.72 48.8941L126.624 48.8222L123.916 52.4181ZM125.602 46.4268L123.469 49.2696L127.071 51.9707L129.203 49.1279L125.602 46.4268ZM124.709 40.1101C126.694 41.6056 127.096 44.4345 125.602 46.4267L129.203 49.1279C132.186 45.1515 131.388 39.5048 127.417 36.5141L124.709 40.1101ZM118.442 40.9727C119.943 39.0093 122.738 38.626 124.709 40.1101L127.417 36.5142C123.469 33.5402 117.866 34.3121 114.865 38.2394L118.442 40.9727ZM113.65 47.2451L118.442 40.9727L114.865 38.2395L110.073 44.5118L113.65 47.2451ZM113.251 47.8199C113.428 47.5838 113.595 47.3427 113.754 47.0968L109.968 44.6601C109.869 44.8149 109.762 44.968 109.649 45.1193L113.251 47.8199ZM109.655 52.6135L113.25 47.8202L109.649 45.119L106.054 49.9124L109.655 52.6135ZM104.264 53.3788C105.965 54.6599 108.379 54.3149 109.655 52.6135L106.054 49.9124C106.27 49.6244 106.682 49.5642 106.972 49.7829L104.264 53.3788ZM103.5 47.989C102.226 49.6877 102.566 52.1001 104.264 53.3788L106.972 49.783C107.26 49.9993 107.316 50.4047 107.101 50.6904L103.5 47.989ZM106.612 43.8401L103.5 47.9891L107.102 50.6902L110.213 46.5412L106.612 43.8401ZM107.01 46.9511L107.041 46.9752L109.785 43.4061L109.753 43.382L107.01 46.9511ZM107.449 42.6796L106.593 43.7999L110.17 46.5333L111.026 45.413L107.449 42.6796ZM106.21 36.931C108.07 38.3318 108.529 40.9153 107.324 42.8609L111.151 45.2316C113.57 41.3272 112.656 36.1506 108.918 33.3351L106.21 36.931ZM99.9713 37.8185C101.451 35.8454 104.243 35.4499 106.21 36.931L108.918 33.3351C104.961 30.3546 99.3422 31.1544 96.3699 35.1174L99.9713 37.8185ZM70.7287 76.8067L99.9713 37.8185L96.3699 35.1174L67.1274 74.1055L70.7287 76.8067ZM68.988 73.206C68.2121 73.1854 67.4137 72.9597 66.7178 72.5714L64.5244 76.5027C65.8246 77.2281 67.3309 77.6653 68.8682 77.7062L68.988 73.206ZM93.8162 33.1939L63.8204 73.1865L67.4218 75.8876L97.4176 35.8951L93.8162 33.1939Z" fill="#FC5130"/>
<ellipse cx="82.8165" cy="104.532" rx="2.87512" ry="2.88116" fill="#FC5130"/>
<path fill-rule="evenodd" clip-rule="evenodd" d="M127.235 80.5334C128.641 81.6015 128.917 83.6095 127.851 85.0184L112.913 104.766C106.402 114.888 95.9356 113.804 91.5045 111.975C89.873 111.302 89.0951 109.431 89.7669 107.796C90.4386 106.161 92.3057 105.382 93.9371 106.055C96.7304 107.207 103.368 107.872 107.596 101.214L107.666 101.103L122.76 81.1506C123.826 79.7417 125.829 79.4653 127.235 80.5334Z" fill="#FC5130"/>
<path fill-rule="evenodd" clip-rule="evenodd" d="M68.0724 38.8655C63.2225 31.9344 53.6839 30.2555 46.7673 35.1155C39.8508 39.9756 38.1754 49.5342 43.0252 56.4653L48.1228 63.7504L52.8972 59.4217L48.2565 52.7895C45.4325 48.7536 46.4081 43.1877 50.4355 40.3578C54.4629 37.5278 60.0171 38.5054 62.8412 42.5413L68.7067 50.924C70.6877 52.2608 73.4842 52.9163 75.5867 49.6043L68.0724 38.8655Z" fill="#FC5130"/>
<path fill-rule="evenodd" clip-rule="evenodd" d="M113.599 6.96368C109.227 3.67064 103.019 4.55287 99.7326 8.93416L69.7363 48.9273C70.7346 49.484 71.8871 49.8153 73.0437 49.8458L102.286 10.8576C104.512 7.88952 108.718 7.29194 111.68 9.52268C114.479 11.6309 115.165 15.5109 113.353 18.4359L112.497 19.5562L112.528 19.5803L109.417 23.7293C108.887 24.4358 109.029 25.4394 109.734 25.9705C110.439 26.5017 111.44 26.3593 111.97 25.6526L115.565 20.8593C115.711 20.6656 115.848 20.4685 115.977 20.2681L120.77 13.9957C123.02 11.0503 127.219 10.4727 130.179 12.7018C133.157 14.9449 133.756 19.1826 131.518 22.167L129.386 25.0098L129.481 25.0817C129.126 25.4305 128.792 25.8105 128.484 26.2213L124.59 31.4126C124.06 32.1191 124.202 33.1226 124.907 33.6538C125.613 34.1849 126.614 34.0425 127.144 33.3358L131.037 28.1447C133.264 25.1766 137.469 24.579 140.431 26.8098C143.393 29.0405 143.989 33.255 141.763 36.2229L135.767 44.2177C135.64 44.3867 135.552 44.5725 135.5 44.7649L133.86 47.117C133.354 47.8416 133.531 48.8395 134.254 49.3458C134.977 49.8523 135.973 49.6755 136.478 48.951L138.614 45.8891C140.742 42.8381 144.97 42.1623 147.939 44.399C150.838 46.5821 151.421 50.7064 149.243 53.6108L140.447 65.3378L142.633 67.7523L151.797 55.5343C155.035 51.2164 154.168 45.0852 149.859 41.8399C147.803 40.2916 145.341 39.6821 142.978 39.931L144.317 38.1464C147.603 33.7651 146.722 27.5438 142.35 24.2508C140.197 22.6292 137.599 22.0202 135.124 22.3427C137.09 18.16 135.931 13.0299 132.098 10.1426C127.737 6.85817 121.55 7.70914 118.233 12.0495L117.397 13.1441C116.971 10.7632 115.681 8.53165 113.599 6.96368Z" fill="#FC5130"/>
<path d="M99.7326 8.93416L97.9319 7.58358L97.9319 7.58358L99.7326 8.93416ZM113.599 6.96368L114.953 5.16575L114.953 5.16572L113.599 6.96368ZM69.7363 48.9273L67.9356 47.5767C67.5458 48.0965 67.3996 48.7593 67.5345 49.3949C67.6695 50.0304 68.0725 50.5766 68.6399 50.8931L69.7363 48.9273ZM73.0437 49.8458L72.9843 52.0959C73.7135 52.1151 74.4067 51.7799 74.8444 51.1964L73.0437 49.8458ZM102.286 10.8576L104.087 12.2082L104.087 12.2081L102.286 10.8576ZM111.68 9.52268L113.034 7.72472L113.034 7.72471L111.68 9.52268ZM113.353 18.4359L115.142 19.8026C115.186 19.7443 115.228 19.6837 115.267 19.6213L113.353 18.4359ZM112.497 19.5562L110.709 18.1895C109.955 19.1753 110.142 20.5847 111.125 21.3408L112.497 19.5562ZM112.528 19.5803L114.329 20.9309C115.069 19.9447 114.878 18.5471 113.9 17.7958L112.528 19.5803ZM109.417 23.7293L111.217 25.08L111.217 25.0799L109.417 23.7293ZM109.734 25.9705L108.379 27.7684L108.38 27.7685L109.734 25.9705ZM111.97 25.6526L110.17 24.302L110.17 24.302L111.97 25.6526ZM115.565 20.8593L117.366 22.2098L117.366 22.2096L115.565 20.8593ZM115.977 20.2681L114.188 18.9015C114.152 18.9495 114.117 18.9989 114.084 19.0497L115.977 20.2681ZM120.77 13.9957L118.981 12.6291L118.981 12.6291L120.77 13.9957ZM130.179 12.7018L128.824 14.4997L128.824 14.4997L130.179 12.7018ZM131.518 22.167L129.717 20.8164L129.717 20.8164L131.518 22.167ZM129.386 25.0098L127.585 23.6593C126.84 24.6524 127.04 26.0609 128.032 26.8078L129.386 25.0098ZM129.481 25.0817L131.057 26.6887C131.525 26.2297 131.77 25.5895 131.727 24.9354C131.685 24.2812 131.359 23.6782 130.835 23.2838L129.481 25.0817ZM128.484 26.2213L126.683 24.8707L126.683 24.8707L128.484 26.2213ZM124.59 31.4126L126.391 32.7632L126.391 32.7631L124.59 31.4126ZM124.907 33.6538L126.262 31.8558L126.262 31.8558L124.907 33.6538ZM127.144 33.3358L125.343 31.9852L125.343 31.9853L127.144 33.3358ZM131.037 28.1447L132.838 29.4953L132.838 29.4952L131.037 28.1447ZM140.431 26.8098L141.785 25.0118L141.785 25.0118L140.431 26.8098ZM141.763 36.2229L139.962 34.8723L139.962 34.8724L141.763 36.2229ZM135.767 44.2177L133.966 42.8671L133.966 42.8673L135.767 44.2177ZM135.5 44.7649L137.346 46.0526C137.496 45.8379 137.607 45.5987 137.675 45.3457L135.5 44.7649ZM133.86 47.117L132.014 45.8293L132.014 45.8294L133.86 47.117ZM134.254 49.3458L135.545 47.5022L135.545 47.502L134.254 49.3458ZM136.478 48.951L138.324 50.2387L138.324 50.2386L136.478 48.951ZM138.614 45.8891L136.767 44.6015L136.767 44.6015L138.614 45.8891ZM147.939 44.399L146.585 46.1969L146.585 46.197L147.939 44.399ZM149.243 53.6108L147.442 52.2602L147.442 52.2603L149.243 53.6108ZM140.447 65.3378L138.647 63.9872C138 64.8494 138.055 66.0491 138.778 66.8482L140.447 65.3378ZM142.633 67.7523L140.964 69.2627C141.415 69.761 142.065 70.0317 142.736 70.0008C143.408 69.9699 144.03 69.6405 144.433 69.1029L142.633 67.7523ZM151.797 55.5343L149.996 54.1837L149.996 54.1837L151.797 55.5343ZM149.859 41.8399L151.213 40.0419L151.213 40.0419L149.859 41.8399ZM142.978 39.931L141.178 38.5804C140.64 39.2967 140.579 40.2631 141.021 41.0418C141.462 41.8204 142.324 42.2632 143.214 42.1695L142.978 39.931ZM144.317 38.1464L142.516 36.7958L142.516 36.7958L144.317 38.1464ZM142.35 24.2508L140.996 26.0487L140.996 26.0487L142.35 24.2508ZM135.124 22.3427L133.087 21.385C132.737 22.1293 132.821 23.0052 133.306 23.6695C133.791 24.3339 134.599 24.6809 135.415 24.5747L135.124 22.3427ZM132.098 10.1426L130.744 11.9406L130.744 11.9406L132.098 10.1426ZM118.233 12.0495L120.022 13.4162L120.022 13.4161L118.233 12.0495ZM117.397 13.1441L115.181 13.5403C115.338 14.4188 115.999 15.1215 116.866 15.3317C117.734 15.5419 118.643 15.2199 119.185 14.5108L117.397 13.1441ZM101.533 10.2847C104.073 6.89835 108.868 6.21831 112.245 8.76164L114.953 5.16572C109.586 1.12297 101.964 2.20739 97.9319 7.58358L101.533 10.2847ZM71.537 50.2779L101.533 10.2847L97.9319 7.58358L67.9356 47.5767L71.537 50.2779ZM73.1031 47.5957C72.3273 47.5752 71.5288 47.3497 70.8327 46.9615L68.6399 50.8931C69.9404 51.6184 71.4469 52.0553 72.9843 52.0959L73.1031 47.5957ZM100.486 9.50701L71.243 48.4952L74.8444 51.1964L104.087 12.2082L100.486 9.50701ZM113.034 7.72471C109.077 4.74428 103.458 5.54402 100.486 9.50703L104.087 12.2081C105.567 10.235 108.359 9.83959 110.326 11.3206L113.034 7.72471ZM115.267 19.6213C117.685 15.7168 116.772 10.5403 113.034 7.72472L110.326 11.3206C112.185 12.7215 112.645 15.3049 111.44 17.2506L115.267 19.6213ZM114.286 20.9229L115.142 19.8026L111.565 17.0693L110.709 18.1895L114.286 20.9229ZM113.9 17.7958L113.869 17.7717L111.125 21.3408L111.157 21.3648L113.9 17.7958ZM111.217 25.0799L114.329 20.9309L110.728 18.2297L107.616 22.3788L111.217 25.0799ZM111.088 24.1726C111.375 24.389 111.431 24.7943 111.217 25.08L107.616 22.3786C106.342 24.0774 106.682 26.4898 108.379 27.7684L111.088 24.1726ZM110.17 24.302C110.386 24.014 110.798 23.9538 111.088 24.1726L108.38 27.7685C110.08 29.0495 112.495 28.7045 113.771 27.0032L110.17 24.302ZM113.765 19.5087L110.17 24.302L113.771 27.0032L117.366 22.2098L113.765 19.5087ZM114.084 19.0497C113.984 19.2046 113.878 19.3577 113.765 19.5089L117.366 22.2096C117.543 21.9735 117.711 21.7324 117.869 21.4865L114.084 19.0497ZM118.981 12.6291L114.188 18.9015L117.765 21.6347L122.558 15.3623L118.981 12.6291ZM131.533 10.9038C127.584 7.9298 121.982 8.70173 118.981 12.6291L122.558 15.3624C124.058 13.3989 126.854 13.0157 128.824 14.4997L131.533 10.9038ZM133.319 23.5176C136.301 19.5411 135.503 13.8945 131.533 10.9038L128.824 14.4997C130.81 15.9952 131.212 18.8241 129.717 20.8164L133.319 23.5176ZM131.187 26.3604L133.319 23.5175L129.717 20.8164L127.585 23.6593L131.187 26.3604ZM130.835 23.2838L130.74 23.2119L128.032 26.8078L128.127 26.8797L130.835 23.2838ZM130.284 27.5718C130.524 27.2524 130.783 26.958 131.057 26.6887L127.905 23.4747C127.469 23.9029 127.06 24.3686 126.683 24.8707L130.284 27.5718ZM126.391 32.7631L130.285 27.5718L126.683 24.8707L122.79 30.062L126.391 32.7631ZM126.262 31.8558C126.549 32.0722 126.605 32.4776 126.391 32.7632L122.79 30.0619C121.515 31.7606 121.855 34.173 123.553 35.4517L126.262 31.8558ZM125.343 31.9853C125.559 31.6973 125.971 31.637 126.262 31.8558L123.553 35.4517C125.254 36.7328 127.669 36.3878 128.945 34.6864L125.343 31.9853ZM129.237 26.7941L125.343 31.9852L128.945 34.6864L132.838 29.4953L129.237 26.7941ZM141.785 25.0118C137.828 22.0314 132.209 22.8311 129.237 26.7941L132.838 29.4952C134.318 27.5221 137.11 27.1267 139.077 28.6077L141.785 25.0118ZM143.564 37.5735C146.534 33.6135 145.739 27.9901 141.785 25.0118L139.077 28.6077C141.046 30.0909 141.444 32.8965 139.962 34.8723L143.564 37.5735ZM137.567 45.5683L143.564 37.5735L139.962 34.8724L133.966 42.8671L137.567 45.5683ZM137.675 45.3457C137.653 45.4266 137.616 45.5029 137.568 45.568L133.966 42.8673C133.664 43.2705 133.45 43.7184 133.326 44.1841L137.675 45.3457ZM135.706 48.4047L137.346 46.0526L133.654 43.4772L132.014 45.8293L135.706 48.4047ZM135.545 47.502C135.84 47.7089 135.91 48.1124 135.706 48.4046L132.014 45.8294C130.799 47.5709 131.221 49.9702 132.963 51.1897L135.545 47.502ZM134.632 47.6633C134.838 47.3679 135.248 47.2937 135.545 47.5022L132.963 51.1895C134.706 52.4109 137.108 51.9831 138.324 50.2387L134.632 47.6633ZM136.767 44.6015L134.632 47.6634L138.324 50.2386L140.46 47.1768L136.767 44.6015ZM149.294 42.6011C145.304 39.5962 139.624 40.5056 136.767 44.6015L140.46 47.1768C141.859 45.1705 144.636 44.7285 146.585 46.1969L149.294 42.6011ZM151.044 54.9614C153.966 51.0649 153.184 45.5317 149.294 42.6011L146.585 46.197C148.491 47.6325 148.877 50.3479 147.442 52.2602L151.044 54.9614ZM142.248 66.6883L151.044 54.9614L147.442 52.2603L138.647 63.9872L142.248 66.6883ZM144.302 66.2419L142.116 63.8273L138.778 66.8482L140.964 69.2627L144.302 66.2419ZM149.996 54.1837L140.832 66.4017L144.433 69.1029L153.597 56.8848L149.996 54.1837ZM148.505 43.6378C151.821 46.1356 152.49 50.8579 149.996 54.1837L153.597 56.8848C157.58 51.5749 156.514 44.0349 151.213 40.0419L148.505 43.6378ZM143.214 42.1695C145.033 41.9779 146.922 42.4458 148.505 43.6379L151.213 40.0419C148.684 38.1374 145.65 37.3863 142.742 37.6925L143.214 42.1695ZM142.516 36.7958L141.178 38.5804L144.779 41.2815L146.117 39.4969L142.516 36.7958ZM140.996 26.0487C144.376 28.5942 145.058 33.4066 142.516 36.7958L146.117 39.4969C150.148 34.1235 149.069 26.4934 143.705 22.4528L140.996 26.0487ZM135.415 24.5747C137.329 24.3253 139.332 24.7953 140.996 26.0487L143.705 22.4528C141.063 20.463 137.869 19.7151 134.833 20.1106L135.415 24.5747ZM130.744 11.9406C133.708 14.173 134.61 18.1459 133.087 21.385L137.161 23.3004C139.571 18.1742 138.155 11.8868 133.452 8.34464L130.744 11.9406ZM120.022 13.4161C122.588 10.0578 127.372 9.40107 130.744 11.9406L133.452 8.34465C128.102 4.31526 120.511 5.36051 116.445 10.6828L120.022 13.4161ZM119.185 14.5108L120.022 13.4162L116.445 10.6828L115.608 11.7774L119.185 14.5108ZM112.245 8.76161C113.855 9.97406 114.851 11.6957 115.181 13.5403L119.612 12.7479C119.091 9.83064 117.507 7.08924 114.953 5.16575L112.245 8.76161Z" fill="#FC5130"/>
<path d="M28.9353 104.857L26.4411 117.202H20.6627L19.4526 111.326L18.2179 117.202H12.4394L9.94531 104.857H14.1927L15.6744 113.425H15.9213L17.6006 104.857H21.28L22.9592 113.425H23.2062L24.6878 104.857H28.9353Z" fill="#FC5130"/>
<path d="M35.5377 114.338C36.9371 114.338 38.3941 114.124 39.9086 113.696L40.4519 116.733C38.8221 117.277 37.0276 117.548 35.0685 117.548C32.8954 117.548 31.3315 117.046 30.3766 116.042C29.4218 115.021 28.9443 113.351 28.9443 111.03C28.9443 108.725 29.43 107.063 30.4013 106.042C31.3891 105.022 32.9778 104.511 35.1673 104.511C36.6325 104.511 37.7602 104.635 38.5505 104.882C39.3571 105.129 39.9251 105.54 40.2544 106.116C40.6001 106.692 40.7729 107.516 40.7729 108.585C40.7729 109.639 40.5589 110.454 40.1309 111.03C39.7029 111.606 38.9785 112.017 37.9578 112.264C36.9371 112.511 35.4883 112.635 33.6116 112.635V114.19C34.0725 114.289 34.7146 114.338 35.5377 114.338ZM35.3896 107.721C34.7146 107.721 34.2454 107.795 33.982 107.943C33.7351 108.092 33.6116 108.371 33.6116 108.783V110.363H35.0685C35.7435 110.363 36.2045 110.289 36.4514 110.141C36.7148 109.976 36.8465 109.68 36.8465 109.252V107.721H35.3896Z" fill="#FC5130"/>
<path fill-rule="evenodd" clip-rule="evenodd" d="M83.0751 131.456C84.5024 131.684 86.0002 131.853 87.5715 131.955C89.1053 132.054 90.5857 132.111 92.0154 132.13C92.0727 132.703 92.1013 133.305 92.1013 133.936V160.571H87.7716L85.4233 156.902C81.9498 159.886 77.6202 161.378 72.4343 161.378C68.3248 161.378 65.365 160.497 63.5548 158.736C61.7447 156.975 60.8396 154.089 60.8396 150.078C60.8396 146.654 61.3533 144.135 62.3807 142.521C63.457 140.907 65.4139 139.806 68.2514 139.219C71.1379 138.583 75.6143 138.265 81.6807 138.265H83.0751V131.456ZM76.8434 129.975C72.4318 128.553 68.8862 126.538 66.0579 124.363C64.7478 124.649 63.5465 124.978 62.4541 125.351L63.6282 131.808C68.0802 130.585 72.3609 129.974 76.4705 129.974C76.5959 129.974 76.7202 129.974 76.8434 129.975ZM101.407 131.639V173.337L110.433 172.457V160.057C112.537 161.133 115.717 161.671 119.973 161.671C123.593 161.671 126.382 161.109 128.339 159.984C130.296 158.81 131.69 156.853 132.522 154.114C133.353 151.326 133.769 147.363 133.769 142.227C133.769 137.14 133.353 133.251 132.522 130.561C131.739 127.822 130.369 125.889 128.412 124.764C127.055 123.984 125.287 123.475 123.106 123.235C117.78 127.177 111.002 130.436 101.407 131.639ZM53.6279 153.967C54.6063 154.163 55.756 154.309 57.0769 154.407L56.5633 160.497C54.3617 161.084 52.5027 161.378 50.986 161.378C48.8334 161.378 47.219 160.888 46.1427 159.91C45.1153 158.932 44.6016 157.391 44.6016 155.288V112.878L53.6279 111.777V153.967ZM25.8777 161.378C22.2085 161.378 19.371 160.815 17.3651 159.69C15.3593 158.516 13.9405 156.584 13.1089 153.894C12.2772 151.154 11.8613 147.266 11.8613 142.227C11.8613 137.189 12.2772 133.3 13.1089 130.561C13.9405 127.822 15.3593 125.889 17.3651 124.764C19.371 123.639 22.2085 123.077 25.8777 123.077C27.8836 123.077 30.0117 123.224 32.2622 123.517C34.5615 123.762 36.4451 124.08 37.9128 124.471L36.9588 131.074C33.7298 130.341 30.5499 129.974 27.4188 129.974C25.1683 129.974 23.6028 130.439 22.7222 131.368C21.8416 132.248 21.4013 133.789 21.4013 135.991V153.747C22.9179 154.236 25.1194 154.481 28.0059 154.481C29.5714 154.481 31.088 154.358 32.5557 154.114C34.0723 153.82 35.8335 153.331 37.8394 152.646L38.72 159.103C35.0997 160.619 30.8189 161.378 25.8777 161.378ZM81.8275 153.967C81.0448 154.505 79.5526 154.774 77.3511 154.774H69.0587V147.657C69.0587 146.092 69.45 145.04 70.2328 144.502C71.0645 143.915 72.6056 143.621 74.856 143.621H83.0751V150.812C83.0751 152.328 82.6592 153.38 81.8275 153.967ZM124.229 130.194H113.662C112.439 130.194 111.583 130.316 111.094 130.561C110.653 130.805 110.433 131.221 110.433 131.808V154.481H120.927C122.199 154.481 123.055 154.358 123.495 154.114C123.985 153.869 124.229 153.38 124.229 152.646V130.194ZM168.421 124.764C166.464 123.639 163.651 123.077 159.982 123.077C156.704 123.077 154.087 123.37 152.13 123.957C150.222 124.544 148.705 125.596 147.58 127.112L145.672 123.884H141.416V173.337L150.442 172.457V160.057C152.546 161.133 155.725 161.671 159.982 161.671C163.602 161.671 166.391 161.109 168.348 159.984C170.305 158.81 171.699 156.853 172.53 154.114C173.362 151.326 173.778 147.363 173.778 142.227C173.778 137.14 173.362 133.251 172.53 130.561C171.748 127.822 170.378 125.889 168.421 124.764ZM153.671 130.194H164.238V152.646C164.238 153.38 163.993 153.869 163.504 154.114C163.064 154.358 162.208 154.481 160.936 154.481H150.442V131.808C150.442 131.221 150.662 130.805 151.102 130.561C151.592 130.316 152.448 130.194 153.671 130.194Z" fill="#FC5130"/>
</svg>
