<svg width="75" height="102" viewBox="0 0 75 102" fill="none" xmlns="http://www.w3.org/2000/svg">
<path d="M72.7597 37.3462C67.9855 20.6618 53.9613 8.74438 37.55 8.74438C17.2597 9.04232 0.549988 27.5143 0.549988 50.4553C0.549988 67.1397 39.3403 71.6087 60.8242 64.1604C68.8806 61.181 74.55 56.712 74.55 50.4553C74.55 45.9863 73.9532 41.5173 72.7597 37.3462Z" fill="url(#paint0_linear)"/>
<path d="M50.3808 12.0215C49.7841 5.76485 44.1147 0.699951 37.5502 0.699951C30.9857 0.699951 25.6147 5.76485 24.7195 12.0215C28.5986 10.5318 32.776 9.63801 37.5502 9.63801C42.3244 9.63801 46.5018 10.5318 50.3808 12.0215Z" fill="#364958"/>
<path d="M51.2761 12.6175C47.397 9.93604 42.6228 9.04224 37.5503 9.04224C30.6874 9.04224 24.7196 9.93604 20.5422 14.703C16.9615 18.5762 14.5744 25.7266 14.2761 31.3874C14.2761 31.6853 14.2761 73.3963 14.2761 73.6942C14.2761 80.2488 25.9132 83.2281 37.5503 83.2281V81.1426C37.5503 79.057 37.5503 76.6736 37.5503 74.8859V81.1426C37.5503 81.7385 37.5503 82.6323 37.5503 83.2281C49.1874 83.2281 60.8245 79.9509 60.8245 73.6942C60.8245 73.6942 60.8245 69.821 60.8245 64.7561C60.8245 52.5408 60.8245 31.6853 60.8245 31.3874C60.5261 23.939 56.9454 16.4906 51.2761 12.6175Z" fill="#3B6064"/>
<path d="M58.1383 20.6618C60.8238 17.9804 60.8238 13.5113 58.1383 10.8299C55.4528 8.14849 50.977 8.14849 48.2916 10.8299C45.6061 13.5113 37.5496 31.3874 37.5496 31.3874C37.5496 31.3874 55.4528 23.3432 58.1383 20.6618Z" fill="#364958"/>
<path d="M16.9612 20.6618C14.2757 17.9804 14.2757 13.5113 16.9612 10.8299C19.6467 8.14849 24.1225 8.14849 26.808 10.8299C29.4935 13.5113 37.5499 31.3874 37.5499 31.3874C37.5499 31.3874 19.6467 23.3432 16.9612 20.6618Z" fill="#364958"/>
<path d="M40.2353 40.3253C40.2353 41.815 39.0418 43.0068 37.5499 43.0068C36.0579 43.0068 34.8644 41.815 34.8644 40.3253C34.8644 38.8357 37.5499 31.9832 37.5499 31.9832C37.5499 31.9832 40.2353 38.8357 40.2353 40.3253Z" fill="#C9E3CA"/>
<path d="M20.8403 66.2459C19.9451 66.2459 19.05 65.3521 19.05 64.4583C19.05 63.5645 19.9451 62.6707 20.8403 62.6707C23.5258 62.6707 25.6145 60.5851 25.6145 57.9037C25.6145 55.2223 23.5258 53.1367 20.8403 53.1367C19.9451 53.1367 19.05 52.2429 19.05 51.3491C19.05 50.4553 19.9451 49.5615 20.8403 49.5615C25.3161 49.5615 29.1952 53.4347 29.1952 57.9037C29.1952 62.3727 25.3161 66.2459 20.8403 66.2459Z" fill="#C9E3CA"/>
<path d="M54.5583 66.2459C50.0825 66.2459 46.2034 62.3727 46.2034 57.9037C46.2034 53.4347 50.0825 49.5615 54.5583 49.5615C55.4534 49.5615 56.3486 50.4553 56.3486 51.3491C56.3486 52.2429 55.4534 53.1367 54.5583 53.1367C51.8728 53.1367 49.7841 55.2223 49.7841 57.9037C49.7841 60.5851 51.8728 62.6707 54.5583 62.6707C55.4534 62.6707 56.3486 63.5645 56.3486 64.4583C56.3486 65.3521 55.4534 66.2459 54.5583 66.2459Z" fill="#C9E3CA"/>
<path d="M37.5497 42.1128V42.4107" stroke="#C9E3CA" stroke-width="0.340393" stroke-linecap="round" stroke-linejoin="round"/>
<path d="M37.5497 45.092V81.4402" stroke="#C9E3CA" stroke-width="0.340393" stroke-linecap="round" stroke-linejoin="round" stroke-dasharray="0.43 1.3"/>
<path d="M37.5497 82.9299V83.2279" stroke="#C9E3CA" stroke-width="0.340393" stroke-linecap="round" stroke-linejoin="round"/>
<path opacity="0.12" d="M37.8484 101.7C49.384 101.7 58.7355 100.499 58.7355 99.0183C58.7355 97.5374 49.384 96.3369 37.8484 96.3369C26.3128 96.3369 16.9613 97.5374 16.9613 99.0183C16.9613 100.499 26.3128 101.7 37.8484 101.7Z" fill="#364958"/>
<defs>
<linearGradient id="paint0_linear" x1="37.5252" y1="67.6465" x2="37.5252" y2="8.90587" gradientUnits="userSpaceOnUse">
<stop stop-color="#364958"/>
<stop offset="1" stop-color="#3B6064"/>
</linearGradient>
</defs>
</svg>
