<svg width="69" height="102" viewBox="0 0 69 102" fill="none" xmlns="http://www.w3.org/2000/svg">
<path d="M34.55 60.1934C25.2773 60.1934 16.6914 58.8098 10.5096 56.3886C5.7015 54.6591 2.61059 52.2379 0.893422 49.8166C0.549988 51.5461 0.549993 53.2756 0.549993 55.005C0.549993 74.029 68.55 74.029 68.55 55.005C68.55 53.2756 68.55 51.5461 68.2066 49.8166C63.3985 55.6968 52.4086 60.1934 34.55 60.1934Z" fill="#3B6064"/>
<path d="M33.8626 44.6279C46.2263 44.6279 58.9333 40.1313 58.9333 32.1758V31.83C52.7515 25.258 43.8222 20.7615 34.2061 20.7615C23.903 20.7615 14.9737 25.258 8.79193 32.5217C9.13536 40.4772 21.8424 44.6279 33.8626 44.6279Z" fill="#3B6064"/>
<path d="M34.5503 56.042C49.6614 56.042 66.1462 51.5454 66.4897 43.244C65.4594 40.4769 64.0856 37.7098 62.3685 35.2886C59.621 43.9358 46.5705 48.0865 34.2068 48.0865C26.9947 48.0865 20.126 46.7029 14.9745 44.2817C10.5099 42.2064 7.76239 39.4393 6.38865 35.9804C5.01491 38.0557 3.98461 40.4769 2.95431 42.8982C2.61087 51.5454 19.0957 56.042 34.5503 56.042Z" fill="#3B6064"/>
<path d="M10.1662 56.3881C16.6914 58.8094 25.2773 60.1929 34.2066 60.1929C52.4086 60.1929 63.055 55.6964 67.8631 49.8162C67.5197 47.395 66.8328 45.3197 66.146 43.2443C65.8025 51.5457 49.6611 56.0423 34.2066 56.0423C18.752 56.0423 2.26716 51.5457 2.26716 42.8984C1.5803 44.9738 0.893427 47.395 0.549993 49.8162C2.6106 52.2375 5.35807 54.3128 10.1662 56.3881Z" fill="white"/>
<path d="M14.631 44.628C19.7825 47.0492 26.6512 48.4328 33.8633 48.4328C46.2269 48.4328 59.2774 44.2821 62.0249 35.6349C60.9946 34.2513 59.9643 32.8677 58.934 31.8301V32.176C58.934 40.4773 46.2269 44.628 33.8633 44.628C21.4996 44.628 9.13601 40.4773 8.79258 32.5219C7.76227 33.5595 6.73197 34.9431 6.0451 36.3266C7.41884 39.4397 10.1663 42.2068 14.631 44.628Z" fill="white"/>
<path d="M46.2266 22.837C47.6003 22.1452 46.2266 19.3781 46.2266 19.3781C46.2266 19.3781 43.1357 17.6487 44.5094 15.5733C45.8831 13.498 43.8225 12.1144 43.8225 12.1144C43.8225 12.1144 38.671 12.8062 39.0145 9.34729C39.3579 5.88839 34.2064 4.85072 34.2064 4.85072C33.8629 5.19661 33.5195 5.5425 33.5195 5.88839C32.8326 4.85072 31.4589 4.15893 30.0852 4.15893C28.0246 4.15893 26.3074 5.5425 25.9639 7.61784C23.5599 7.61784 21.4993 9.69318 21.4993 12.1144C21.4993 13.1521 21.8427 13.8439 22.1862 14.5356C21.8427 14.8815 21.8427 15.2274 21.8427 15.5733C18.7518 15.9192 16.6912 18.6863 16.6912 21.7993C16.6912 25.2582 19.4387 28.0254 22.873 28.0254C23.9033 28.0254 24.9336 27.6795 25.9639 27.3336C26.6508 30.1007 29.0549 31.8301 31.8023 31.8301C33.8629 31.8301 35.5801 30.7925 36.9538 29.063C37.2973 30.1007 38.671 31.1384 39.7013 31.1384C41.4185 31.1384 42.7922 29.7548 42.7922 28.0254V27.6795C43.1357 27.6795 43.8225 27.3336 44.166 27.3336C44.8528 25.2582 45.5397 23.1829 46.2266 22.837Z" fill="#C9E3CA"/>
<path d="M47.6005 29.7547C49.3177 29.7547 50.6914 28.3712 50.6914 26.6417C50.6914 25.9499 50.348 25.2582 50.0046 24.5664C50.0046 24.5664 50.0046 24.5664 50.348 24.5664C52.4086 24.2205 54.1258 22.8369 54.1258 20.7616C54.1258 19.0321 52.752 17.6486 51.3783 16.9568C51.3783 16.6109 51.3783 16.6109 51.0349 16.265C51.3783 15.2273 51.7218 14.1897 51.7218 13.152C51.7218 9.6931 48.9743 6.92597 45.8834 6.92597C45.8834 3.46707 43.1359 0.699951 39.7016 0.699951C37.2975 0.699951 34.8935 2.08351 33.8632 4.50474C33.8632 4.50474 39.0147 5.19652 38.6712 9.00132C38.6712 12.8061 43.4793 12.1143 43.4793 12.1143C43.4793 12.1143 45.5399 13.4979 44.1662 15.5732C42.7924 17.6486 45.8834 19.378 45.8834 19.378C45.8834 19.378 47.2571 22.1451 45.8834 22.8369C45.1965 23.1828 44.5096 25.2582 44.1662 26.9876C44.5096 28.3712 45.8834 29.7547 47.6005 29.7547Z" fill="#87BBA1"/>
<path opacity="0.12" d="M35.2374 101.7C48.5145 101.7 59.2778 100.306 59.2778 98.5871C59.2778 96.8679 48.5145 95.4741 35.2374 95.4741C21.9602 95.4741 11.197 96.8679 11.197 98.5871C11.197 100.306 21.9602 101.7 35.2374 101.7Z" fill="#364958"/>
</svg>
