<svg width="52" height="102" viewBox="0 0 52 102" fill="none" xmlns="http://www.w3.org/2000/svg">
<path opacity="0.12" d="M25.3121 101.7C36.4437 101.7 45.4677 100.531 45.4677 99.0879C45.4677 97.6453 36.4437 96.4758 25.3121 96.4758C14.1805 96.4758 5.15649 97.6453 5.15649 99.0879C5.15649 100.531 14.1805 101.7 25.3121 101.7Z" fill="#364958"/>
<path d="M47.4838 62.2287C47.4838 61.9385 47.1959 61.6483 47.1959 61.6483V61.3581C47.1959 61.3581 47.7717 56.4241 48.3476 50.0391C44.3165 56.1339 44.3165 56.1339 44.0286 56.4241C43.7406 56.7144 43.1647 57.0046 42.5889 57.0046C42.013 57.0046 41.4371 56.7144 41.1492 56.4241C40.5733 55.8437 40.2854 54.6828 40.8613 53.8121C41.4371 52.9414 50.0752 40.4615 50.6511 39.3006C52.3787 36.6885 51.5149 33.2057 48.9235 31.4643C46.3321 29.723 42.5889 30.3034 40.8613 32.9155C40.2854 33.496 33.6628 43.654 33.087 44.5247C32.799 45.1052 32.2232 45.6856 31.3593 45.6856C30.2076 45.6856 29.3438 44.8149 29.3438 43.654C29.3438 43.0736 29.3438 43.0736 33.6628 36.6885C36.5422 32.335 37.406 31.1741 37.694 30.5937C40.5733 26.5304 46.3321 25.3695 50.6511 27.9816C50.9391 26.2402 50.939 25.0793 50.939 25.0793C50.3632 13.7603 42.5889 4.18271 31.9352 1.57064C29.9197 0.990181 27.9041 0.699951 25.8885 0.699951C23.873 0.699951 20.1298 1.57064 17.5384 2.44133C16.6745 2.73156 16.0987 3.02179 15.5228 3.02179H15.8107C7.17263 6.79478 1.12594 14.9212 0.838004 25.0793C0.838004 25.3695 4.86914 57.2948 5.44501 61.9385C5.44501 62.2287 5.44501 62.519 5.44501 62.519C5.44501 62.519 5.15706 62.8092 5.15706 63.0994C11.4917 65.7115 28.192 71.5161 47.4838 62.2287Z" fill="#C9E3CA"/>
<path d="M50.3632 69.1943C49.4994 67.1627 48.0597 63.9702 47.4838 62.519C28.192 71.8064 11.7796 65.7116 5.445 62.8093C4.58119 64.2604 2.85355 67.453 1.98974 69.1943C6.3088 72.0966 28.192 84.2863 50.3632 69.1943Z" fill="#87BBA1"/>
<path d="M25.8885 81.384C29.6317 81.384 33.6628 81.0938 37.1181 80.5133C40.5733 79.9329 43.4527 79.0622 45.7562 77.611C48.9235 75.8696 50.939 73.838 50.939 70.9357C50.939 70.9357 50.6511 70.065 50.0752 69.1943C27.9041 84.5765 5.73292 72.0966 1.41386 69.1943C0.83799 70.065 0.550044 70.9357 0.550044 70.9357C0.837981 77.9012 13.5072 81.384 25.8885 81.384Z" fill="#3B6064"/>
</svg>
