<svg width="729" height="49" viewBox="0 0 729 49" fill="none" xmlns="http://www.w3.org/2000/svg">
<path fill-rule="evenodd" clip-rule="evenodd" d="M226.652 18.9336C227.577 19.8848 228.571 20.6455 229.638 21.1191C230.353 21.4375 231.069 21.7236 231.786 21.9814C232.058 29.0771 235.928 32.7852 240.273 32.7852C245.165 32.7852 248.782 30.4395 250.927 27.0898H252.267C250.189 32.4502 245.433 37.1396 238.264 37.1396C229.62 37.1396 225.198 29.0996 226.472 20.0547C226.525 19.6758 226.586 19.3018 226.652 18.9336ZM266.23 20.501L264.035 36.4697H269.395L271.405 22.0645C271.531 21.1748 271.691 20.3057 271.886 19.4639C269.998 19.7646 268.112 20.1221 266.23 20.501ZM292.079 16.8652C291.813 17.8799 291.601 18.9434 291.443 20.0547C290.17 29.0996 294.592 37.1396 303.235 37.1396C310.404 37.1396 315.161 32.4502 317.238 27.0898H315.898C313.754 30.4395 310.137 32.7852 305.245 32.7852C300.622 32.7852 296.603 28.6982 296.736 20.792C307.887 21.9443 314.459 19.2148 317.378 15.5254C316.889 15.3008 316.386 15.0771 315.87 14.8545C314.621 14.3154 313.409 13.9209 312.228 13.6475C310.023 17.2383 304.952 20.1592 296.87 18.6475C297.019 17.4062 297.234 16.2344 297.513 15.1357C296.902 15.3301 296.289 15.5293 295.674 15.7295C294.49 16.1152 293.295 16.5039 292.079 16.8652ZM326.18 20.6533C324.898 30.2227 328.874 37.1396 335.365 37.1396C336.93 37.1396 338.312 36.8867 339.553 36.3955C339.013 35.5029 338.5 34.5664 338.001 33.6553C337.964 33.5879 337.928 33.5205 337.891 33.4531C334.413 33.376 332.074 30.6719 331.718 25.4824C329.919 23.6836 328.127 22.0996 326.18 20.6533ZM392.906 34.7197C393.485 36.1387 394.708 37.1396 397.048 37.1396C401.738 37.1396 405.088 33.1201 407.099 27.7598L405.759 27.0898C403.413 32.4502 400.935 33.79 399.729 33.79C398.729 33.79 397.99 33.4541 397.874 31.8652C396.274 32.8984 394.615 33.8496 392.906 34.7197ZM416.974 18.5977L415.798 27.0898C414.726 34.46 417.808 37.1396 423.503 37.1396C428.418 37.1396 433.16 34.3535 436.729 29.8965C436.312 29.3662 435.872 28.8545 435.403 28.3672C432.98 31.7549 429.298 33.1201 425.981 33.1201C421.828 33.1201 420.622 30.7744 421.158 27.0898L422.111 20.2051C420.422 19.4717 418.697 18.8906 416.974 18.5977ZM508.046 26.7803L506.714 36.4697H512.073L513.701 24.8096C512.299 25.377 510.788 25.875 509.147 26.416C508.787 26.5352 508.42 26.6562 508.046 26.7803ZM528.738 8.19922C529.076 9.23047 529.071 10.6475 528.824 12.3496L525.474 36.4697H530.834L532.844 22.0645C533.563 16.9834 536.771 12.0361 539.898 9.08301C539.277 8.78906 538.646 8.52344 537.999 8.28906C536.581 10.0225 535.253 11.9971 534.05 14.0244H533.916L534.184 12.3496C534.493 10.3643 534.55 8.71484 534.379 7.36621C533.558 7.24609 532.712 7.18164 531.839 7.18164C530.66 7.18164 529.639 7.56738 528.738 8.19922ZM552.207 17.6699C551.198 16.917 550.203 16.1357 549.208 15.3545C548.595 14.873 547.982 14.3926 547.367 13.918L545.172 29.7695C544.703 33.1201 544.971 37.1396 549.661 37.1396C554.351 37.1396 557.634 33.1201 559.644 27.7598L558.304 27.0898C555.959 32.4502 553.479 33.79 552.273 33.79C550.934 33.79 550.062 33.1865 550.531 29.7695L552.207 17.6699ZM727.201 28.6309C727.678 28.8701 728.131 29.1523 728.559 29.4844C726.507 33.96 723.396 37.1396 719.225 37.1396C714.534 37.1396 714.333 33.1201 714.802 29.7695L715.119 27.4492C715.777 27.4404 716.438 27.4229 717.097 27.4053C718.241 27.375 719.38 27.3447 720.491 27.3604L720.162 29.7695C719.693 33.1865 720.564 33.79 721.904 33.79C722.985 33.79 725.088 32.7139 727.201 28.6309ZM704.216 28.9414C704.88 28.6855 705.564 28.4639 706.29 28.2754C704.004 33.9805 701.534 37.1396 696.979 37.1396C695.118 37.1396 693.975 36.4004 693.297 35.3418C693.444 35.2471 693.594 35.1523 693.745 35.0576C694.819 34.3809 695.791 33.7529 696.689 33.1719C697.083 32.917 697.463 32.6709 697.831 32.4346C698.016 33.5146 698.6 33.79 699.459 33.79C700.512 33.79 702.483 32.7686 704.216 28.9414ZM574.142 24.1885L573.74 27.0898C573.204 30.7744 573.807 33.1201 576.554 33.1201C578.427 33.1201 581.485 30.8057 584.057 27.3906C584.523 27.6758 584.982 27.9844 585.432 28.3174C582.112 33.1865 578.106 37.1396 574.008 37.1396C569.519 37.1396 567.308 34.46 568.38 27.0898L568.846 23.7227C570.641 23.8223 572.412 23.957 574.142 24.1885ZM586.846 29.4766C587.441 30.0156 588.02 30.6074 588.577 31.2559C590.098 33.0244 591.5 34.9688 592.868 36.9541C592.32 37.0762 591.751 37.1396 591.16 37.1396C586.47 37.1396 586.336 33.1201 586.805 29.7695L586.846 29.4766ZM24.9346 7.55957C24.7012 7.93359 24.4561 8.20117 24.2002 8.36523C23.9434 8.50488 23.6162 8.5752 23.2197 8.5752C22.7998 8.5752 22.3447 8.45801 21.8545 8.22461C21.3877 7.99121 20.8398 7.73535 20.21 7.45508C19.5801 7.15137 18.8564 6.88281 18.04 6.64941C17.2461 6.41699 16.3018 6.2998 15.2051 6.2998C13.501 6.2998 12.1602 6.66113 11.1797 7.38477C10.2002 8.1084 9.70996 9.05273 9.70996 10.2197C9.70996 10.9902 9.95508 11.6436 10.4443 12.1797C10.958 12.6934 11.623 13.1484 12.4395 13.5449C13.2793 13.9414 14.2246 14.3027 15.2744 14.6299C16.3252 14.9336 17.3984 15.2715 18.4951 15.6445C19.5918 16.0186 20.665 16.4502 21.7148 16.9395C22.7646 17.4062 23.6982 18.0137 24.5146 18.7598C25.3545 19.4834 26.0195 20.3584 26.5098 21.3848C27.0234 22.4111 27.2793 23.6484 27.2793 25.0947C27.2793 26.8213 26.9648 28.4199 26.335 29.8896C25.7051 31.3369 24.7832 32.5967 23.5693 33.6699C22.3564 34.7197 20.8516 35.5479 19.0547 36.1553C17.2812 36.7383 15.2393 37.0303 12.9297 37.0303C11.6934 37.0303 10.4795 36.9131 9.29004 36.6797C8.12305 36.4697 6.99121 36.167 5.89453 35.7695C4.82129 35.373 3.81836 34.9062 2.88477 34.3701C1.97461 33.833 1.16992 33.25 0.469727 32.6201L2.46484 29.3301C2.72168 28.9336 3.02441 28.6299 3.375 28.4199C3.72461 28.21 4.16797 28.1045 4.70508 28.1045C5.24121 28.1045 5.74316 28.2568 6.20996 28.5596C6.7002 28.8633 7.25977 29.1895 7.88965 29.54C8.51953 29.8896 9.25488 30.2168 10.0947 30.5195C10.958 30.8232 12.043 30.9746 13.3496 30.9746C14.376 30.9746 15.251 30.8584 15.9746 30.625C16.7217 30.3682 17.3281 30.042 17.7949 29.6445C18.2852 29.248 18.6348 28.793 18.8447 28.2803C19.0781 27.7432 19.1943 27.1953 19.1943 26.6348C19.1943 25.7949 18.9385 25.1064 18.4248 24.5703C17.9346 24.0332 17.2695 23.5664 16.4297 23.1699C15.6133 22.7734 14.668 22.4229 13.5947 22.1201C12.5449 21.793 11.46 21.4434 10.3398 21.0703C9.24316 20.6963 8.1582 20.2646 7.08496 19.7744C6.03516 19.2617 5.08984 18.6201 4.25 17.8496C3.43262 17.0801 2.76758 16.1348 2.25488 15.0146C1.76465 13.8945 1.51953 12.542 1.51953 10.9551C1.51953 9.48535 1.81152 8.08496 2.39453 6.75488C2.97852 5.4248 3.83008 4.26953 4.9502 3.29004C6.09277 2.28613 7.50488 1.49316 9.18457 0.910156C10.8877 0.302734 12.8477 0 15.0645 0C17.5381 0 19.79 0.408203 21.8193 1.22461C23.8496 2.04199 25.541 3.11523 26.8945 4.44531L24.9346 7.55957ZM49.5068 0C52.1895 0 54.6162 0.431641 56.7861 1.29492C58.9795 2.1582 60.8467 3.38281 62.3867 4.96973C63.9268 6.55664 65.1162 8.49316 65.9561 10.7803C66.7959 13.0664 67.2168 15.6211 67.2168 18.4453C67.2168 21.292 66.7959 23.8584 65.9561 26.1445C65.1162 28.4316 63.9268 30.3799 62.3867 31.9902C60.8467 33.5996 58.9795 34.8369 56.7861 35.7002C54.6162 36.5635 52.1895 36.9951 49.5068 36.9951C46.8232 36.9951 44.3848 36.5635 42.1914 35.7002C39.998 34.8369 38.1201 33.5996 36.5566 31.9902C35.0166 30.3799 33.8145 28.4316 32.9512 26.1445C32.1113 23.8584 31.6914 21.292 31.6914 18.4453C31.6914 15.6211 32.1113 13.0664 32.9512 10.7803C33.8145 8.49316 35.0166 6.55664 36.5566 4.96973C38.1201 3.38281 39.998 2.1582 42.1914 1.29492C44.3848 0.431641 46.8232 0 49.5068 0ZM49.5068 30.3447C52.4932 30.3447 54.6982 29.3418 56.1211 27.335C57.5684 25.3281 58.291 22.3887 58.291 18.5146C58.291 14.6416 57.5684 11.6895 56.1211 9.66016C54.6982 7.62988 52.4932 6.61523 49.5068 6.61523C46.4727 6.61523 44.2334 7.6416 42.7861 9.69531C41.3398 11.7246 40.6162 14.665 40.6162 18.5146C40.6162 22.3652 41.3398 25.3047 42.7861 27.335C44.2334 29.3418 46.4727 30.3447 49.5068 30.3447ZM84.5244 47.7051C84.9443 47.4014 85.2832 46.9463 85.5391 46.3398L105.104 0.55957H98.1748C97.6377 0.55957 97.1475 0.711914 96.7041 1.01465C96.2842 1.31836 95.9814 1.70312 95.7939 2.16992L88.584 20.7549C88.3281 21.4082 88.083 22.0498 87.8496 22.6797C87.6396 23.3096 87.4414 23.9629 87.2549 24.6396C87.1143 23.9863 86.9512 23.333 86.7646 22.6797C86.5781 22.0264 86.3564 21.3965 86.0996 20.79L78.4346 2.16992C78.248 1.75 77.9678 1.37695 77.5947 1.0498C77.2207 0.723633 76.6846 0.55957 75.9844 0.55957H68.4248L82.9492 33.8096L76.2295 48.1953H82.6689C83.5098 48.1953 84.1279 48.0312 84.5244 47.7051ZM150.781 29.7695C150.312 33.1201 150.446 37.1396 155.137 37.1396C159.826 37.1396 163.177 33.1201 165.187 27.7598L163.847 27.0898C161.501 32.4502 159.022 33.79 157.816 33.79C156.477 33.79 155.673 33.1865 156.142 29.7695L159.826 2.96973H154.467L152.456 17.375C151.317 25.415 143.947 33.1201 140.53 33.1201C137.783 33.1201 137.181 30.7744 137.717 27.0898L140.129 9.66992C140.598 6.32031 140.396 2.2998 135.706 2.2998C131.017 2.2998 127.666 6.32031 125.656 11.6797L126.996 12.3496C129.342 6.99023 131.82 5.64941 133.026 5.64941C134.366 5.64941 135.237 6.25293 134.769 9.66992L132.356 27.0898C131.284 34.46 133.495 37.1396 137.984 37.1396C142.875 37.1396 147.633 31.5117 151.25 25.415H151.385L150.781 29.7695ZM177.254 2.2998C181.944 2.2998 182.078 6.32031 181.609 9.66992L181.006 14.0244H181.141C184.759 7.92773 189.516 2.2998 194.406 2.2998C198.896 2.2998 201.106 4.97949 200.034 12.3496L197.622 29.7695C197.153 33.1865 198.024 33.79 199.364 33.79C200.57 33.79 203.049 32.4502 205.395 27.0898L206.734 27.7598C204.725 33.1201 201.374 37.1396 196.685 37.1396C191.994 37.1396 191.793 33.1201 192.263 29.7695L194.674 12.3496C195.21 8.66504 194.607 6.32031 191.86 6.32031C188.443 6.32031 181.073 14.0244 179.935 22.0645L177.924 36.4697H172.564L176.249 9.66992C176.719 6.25293 175.914 5.64941 174.574 5.64941C173.368 5.64941 170.89 6.99023 168.544 12.3496L167.204 11.6797C169.214 6.32031 172.564 2.2998 177.254 2.2998Z" fill="#111111"/>
</svg>
