<svg width="301" height="301" viewBox="0 0 301 301" fill="none" xmlns="http://www.w3.org/2000/svg">
<path d="M150.265 47.3335C94.6143 47.3335 49.2793 92.6684 49.2793 148.319C49.2793 158.635 54.9801 173.023 82.6697 183.338C100.586 189.854 124.476 193.654 150.265 193.654C200.486 193.654 251.25 179.809 251.25 148.591C251.522 92.6684 206.187 47.3335 150.265 47.3335Z" fill="white"/>
<path d="M207.273 67.4221C207.273 67.4221 293.057 199.355 60.9526 167.05C134.792 229.216 265.91 170.036 253.694 159.721L250.708 125.516C250.708 125.516 238.763 72.8514 207.273 67.4221Z" fill="#C9E3CA"/>
<path d="M150.808 198.269C123.118 198.269 97.3291 194.469 78.055 187.139C48.1937 176.28 41.95 160.535 41.95 149.676C41.95 89.9538 90.5425 41.0898 150.537 41.0898C210.531 41.0898 259.395 89.6823 259.395 149.676C259.395 183.338 204.83 198.269 150.808 198.269ZM150.537 53.3058C97.3292 53.3058 54.166 96.469 54.166 149.676C54.166 173.294 103.844 186.053 150.808 186.053C197.772 186.053 247.45 173.294 247.45 149.676C247.179 96.7405 204.016 53.3058 150.537 53.3058Z" fill="#87BBA1"/>
<path d="M171.44 288.939C157.052 288.939 145.379 277.266 145.379 262.878L144.836 195.283C144.836 192.025 147.55 189.311 150.808 189.039C154.066 189.039 156.78 191.754 156.78 195.011L157.323 262.607C157.323 270.479 163.567 276.723 171.168 276.723C178.769 276.723 185.013 270.479 185.013 262.878C185.013 259.621 187.728 256.906 190.985 256.906C194.243 256.906 196.957 259.621 196.957 262.878C197.5 277.266 185.827 288.939 171.44 288.939Z" fill="#87BBA1"/>
<path d="M150.808 53.5773C147.55 53.5773 144.836 50.8627 144.836 47.6051V17.4723C144.836 14.2147 147.55 11.5 150.808 11.5C154.066 11.5 156.78 14.2147 156.78 17.4723V47.6051C157.052 50.8627 154.337 53.5773 150.808 53.5773Z" fill="#87BBA1"/>
<path d="M223.562 182.524C223.562 192.297 215.689 200.169 205.916 200.169C196.144 200.169 188.271 192.297 188.271 182.524C188.271 172.751 205.916 126.059 205.916 126.059C205.916 126.059 223.562 172.751 223.562 182.524Z" fill="white"/>
<path d="M213.517 158.092C213.517 158.092 216.503 186.868 194.786 190.125C200.758 198.812 212.16 192.84 212.16 192.84L221.118 183.067V168.136L213.517 158.092Z" fill="#C9E3CA"/>
<path d="M206.187 206.142C193.157 206.142 182.57 195.554 182.57 182.524C182.57 172.208 197.501 132.031 200.487 123.887C201.301 121.444 203.744 120.087 206.187 120.087C208.631 120.087 211.074 121.715 211.888 123.887C214.874 131.76 229.805 172.208 229.805 182.524C229.805 195.554 219.218 206.142 206.187 206.142ZM206.187 143.704C200.215 160.264 194.786 177.909 194.786 182.253C194.786 188.496 199.944 193.654 206.187 193.654C212.431 193.654 217.589 188.496 217.589 182.253C217.589 177.909 211.888 160.264 206.187 143.704Z" fill="#87BBA1"/>
</svg>
