<svg width="301" height="301" viewBox="0 0 301 301" fill="none" xmlns="http://www.w3.org/2000/svg">
<path d="M229.619 48.0482C217.946 31.2172 203.558 18.1868 187.813 10.3143C186.185 9.49989 184.284 9.49989 182.655 10.3143C181.57 10.8572 180.484 11.4001 179.126 11.9431C170.711 15.4721 160.667 17.3724 150.079 17.3724C139.492 17.3724 129.448 15.4721 121.033 11.9431C119.675 11.4001 118.589 10.8572 117.503 10.3143C115.875 9.49989 113.974 9.49989 112.346 10.3143C96.6006 18.1868 82.2128 31.2172 70.5397 48.0482C51.2656 75.7378 40.95 112.114 40.95 150.12C40.95 170.751 50.7227 186.768 69.7254 197.626V239.975C69.7254 255.449 81.9414 291.554 100.944 291.554C115.06 291.554 127.276 282.052 130.805 269.022C136.506 267.665 142.75 267.122 149.265 267.122C156.323 267.122 163.381 267.936 169.625 269.565C173.697 282.324 185.37 291.554 199.486 291.554C218.489 291.554 230.705 255.177 230.705 239.975V197.626C249.708 186.768 259.481 170.751 259.481 150.12C259.481 112.114 248.893 75.7378 229.619 48.0482Z" fill="white"/>
<path d="M174.24 13.8434H124.562V263.593H174.24V13.8434Z" fill="#C9E3CA"/>
<path d="M232.062 209.028C232.062 209.028 223.376 249.205 175.054 247.576C174.24 259.521 181.298 281.51 181.298 281.51L200.572 289.925L223.918 267.936L231.791 238.075L232.062 209.028Z" fill="#C9E3CA"/>
<path d="M227.448 155.006C227.448 155.006 256.495 152.02 255.137 98.2697C267.082 140.347 257.58 163.965 257.58 163.965C257.58 163.965 246.179 187.039 227.448 195.998C226.633 190.297 227.448 155.006 227.448 155.006Z" fill="#C9E3CA"/>
<path d="M124.562 267.393C131.62 265.493 139.764 264.407 148.451 264.407C157.681 264.407 166.639 265.765 174.24 267.936" stroke="#87BBA1" stroke-width="12.1223" stroke-miterlimit="10" stroke-linecap="round" stroke-linejoin="round"/>
<path d="M174.24 209.028V29.8599C174.24 22.8018 177.226 16.2865 181.841 11.4001C172.883 15.2007 161.753 17.3724 149.537 17.3724C137.321 17.3724 126.19 15.2007 117.232 11.4001C121.847 16.2865 124.833 22.8018 124.833 29.8599V209.028" stroke="#87BBA1" stroke-width="12.1223" stroke-miterlimit="10" stroke-linecap="round" stroke-linejoin="round"/>
<path d="M71.8972 46.4194C53.4375 73.0232 42.0359 109.128 42.0359 149.034C42.0359 168.308 50.7229 182.967 68.9112 193.011" stroke="#87BBA1" stroke-width="12.1223" stroke-miterlimit="10" stroke-linecap="round" stroke-linejoin="round"/>
<path d="M230.162 193.283C248.079 182.967 257.037 168.308 257.037 149.305C257.037 109.671 245.636 73.5661 227.176 46.9624" stroke="#87BBA1" stroke-width="12.1223" stroke-miterlimit="10" stroke-linecap="round" stroke-linejoin="round"/>
<path d="M71.8972 193.283V242.419C71.8972 256.806 83.8418 289.925 98.2295 289.925C112.617 289.925 124.562 277.981 124.562 263.593V209.028" stroke="#87BBA1" stroke-width="12.1223" stroke-miterlimit="10" stroke-linecap="round" stroke-linejoin="round"/>
<path d="M124.562 209.028V29.86C124.562 22.8019 121.576 16.2867 116.961 11.4003C115.603 10.8573 114.246 10.0429 112.889 9.5C97.1437 17.3725 83.0274 30.1315 71.8972 46.6909" stroke="#87BBA1" stroke-width="12.1223" stroke-miterlimit="10" stroke-linecap="round" stroke-linejoin="round"/>
<path d="M71.8972 109.4V193.283" stroke="#87BBA1" stroke-width="12.1223" stroke-miterlimit="10" stroke-linecap="round" stroke-linejoin="round"/>
<path d="M174.24 209.028V263.593C174.24 277.981 186.185 289.925 200.572 289.925C214.96 289.925 226.905 256.806 226.905 242.419V193.283" stroke="#87BBA1" stroke-width="12.1223" stroke-miterlimit="10" stroke-linecap="round" stroke-linejoin="round"/>
<path d="M227.176 193.283V109.4" stroke="#87BBA1" stroke-width="12.1223" stroke-miterlimit="10" stroke-linecap="round" stroke-linejoin="round"/>
<path d="M227.176 46.6909C215.774 30.1315 201.658 17.3725 185.913 9.5C184.556 10.0429 183.198 10.8573 181.841 11.4003C177.226 16.2867 174.24 22.8019 174.24 29.86V209.028" stroke="#87BBA1" stroke-width="12.1223" stroke-miterlimit="10" stroke-linecap="round" stroke-linejoin="round"/>
<path d="M104.473 147.134C107.921 147.134 110.717 144.338 110.717 140.89C110.717 137.442 107.921 134.646 104.473 134.646C101.025 134.646 98.2294 137.442 98.2294 140.89C98.2294 144.338 101.025 147.134 104.473 147.134Z" fill="#87BBA1"/>
<path d="M104.473 176.18C107.921 176.18 110.717 173.385 110.717 169.937C110.717 166.488 107.921 163.693 104.473 163.693C101.025 163.693 98.2294 166.488 98.2294 169.937C98.2294 173.385 101.025 176.18 104.473 176.18Z" fill="#87BBA1"/>
<path d="M104.473 202.513C107.921 202.513 110.717 199.717 110.717 196.269C110.717 192.821 107.921 190.025 104.473 190.025C101.025 190.025 98.2294 192.821 98.2294 196.269C98.2294 199.717 101.025 202.513 104.473 202.513Z" fill="#87BBA1"/>
</svg>
