<svg width="301" height="301" viewBox="0 0 301 301" fill="none" xmlns="http://www.w3.org/2000/svg">
<path d="M212.973 15.4725C214.33 15.4725 215.959 15.4724 217.316 15.7439C229.261 17.6442 276.767 29.8602 271.881 105.056C267.538 170.751 239.576 227.759 228.989 247.034C225.189 253.82 219.216 259.25 211.887 261.693C206.186 263.593 198.585 264.679 189.355 262.507C167.366 257.349 158.951 238.618 161.123 217.987C163.294 197.355 167.366 148.491 162.751 122.702C158.679 97.184 145.106 15.201 212.973 15.4725Z" fill="white"/>
<path d="M168.995 236.446C168.995 236.446 225.731 258.435 246.634 193.555C267.537 128.403 233.604 243.233 233.604 243.233L207.815 263.864L173.338 257.621L168.995 236.446Z" fill="#C9E3CA"/>
<path d="M87.8264 38.2755C86.4691 38.2755 84.8403 38.2755 83.2115 38.5469C71.2669 40.4472 23.7603 52.6632 28.3752 127.588C32.4472 193.283 60.4083 250.291 70.9955 269.565C74.796 276.352 80.7683 281.781 88.0979 284.224C93.7987 286.125 101.4 287.21 110.63 285.039C132.618 279.881 141.034 261.421 138.862 240.518C136.69 219.615 132.618 171.023 137.505 145.233C141.848 119.987 155.693 38.004 87.8264 38.2755Z" fill="white"/>
<path d="M87.8264 38.2755C86.4691 38.2755 84.8403 38.2755 83.2115 38.5469C71.2669 40.4472 23.7603 52.6632 28.3752 127.588C32.4472 193.283 60.4083 250.291 70.9955 269.565C74.796 276.352 80.7683 281.781 88.0979 284.224C93.7987 286.125 101.4 287.21 110.63 285.039C132.618 279.881 141.034 261.421 138.862 240.518C136.69 219.615 132.618 171.023 137.505 145.233C141.848 119.987 155.693 38.004 87.8264 38.2755Z" fill="white"/>
<path d="M68.8235 260.064C68.8235 260.064 126.646 285.582 129.632 186.225C138.048 180.796 139.405 253.277 139.405 253.277L126.103 278.524L99.2278 286.125L75.8816 276.352L68.8235 260.064Z" fill="#C9E3CA"/>
<path d="M100.585 292.368C95.6989 292.368 90.8125 291.554 86.1976 289.925C77.5107 286.939 70.1811 280.695 65.8376 272.551C54.1645 251.105 26.4749 194.097 22.4029 127.86C20.2312 94.1976 28.1037 68.4083 45.4776 51.3059C59.5939 37.4611 76.1533 33.3891 82.397 32.5747C84.0258 32.3032 85.9261 32.0317 87.8264 32.0317H88.0979C107.372 32.0317 122.303 38.2755 132.347 50.4915C155.693 78.4526 146.463 129.76 143.206 146.591C139.134 168.037 141.577 210.385 144.834 240.247C147.549 266.308 135.062 285.853 111.987 291.283C107.915 291.825 104.386 292.368 100.585 292.368ZM87.8264 44.2477C86.7405 44.2477 85.3832 44.2478 84.2973 44.5192C71.5384 46.4195 30.2754 58.364 34.6189 127.317C38.6909 191.111 65.2946 246.219 76.4248 266.851C79.4109 272.551 84.2973 276.623 89.9981 278.524C95.9704 280.695 102.486 280.695 109.272 279.338C133.704 273.637 133.976 250.834 132.89 241.333C131.804 230.202 126.103 173.737 131.533 144.148C139.134 102.885 136.419 73.8376 123.117 58.0926C115.245 48.5912 103.843 43.9763 88.0979 43.9763C87.8264 44.2478 87.8264 44.2477 87.8264 44.2477Z" fill="#87BBA1"/>
<path d="M64.7516 210.657C62.8513 210.657 61.2225 209.843 59.8652 208.214C58.5079 206.585 27.5606 165.05 50.3638 118.087C54.1644 109.943 60.4082 102.885 68.5522 96.9123C84.0258 85.7822 82.3969 71.123 82.3969 71.123C82.1255 67.8654 84.0257 65.1507 87.2833 64.3363C90.2695 63.7934 93.5271 65.6936 94.3415 68.6798C94.3415 68.9512 96.7847 76.8238 106.286 81.4387C122.031 89.3112 143.477 128.402 123.66 187.854C122.574 191.111 119.045 192.74 116.059 191.654C112.801 190.568 111.172 187.039 112.258 184.053C129.904 131.389 111.715 97.4552 101.128 92.2974C97.3276 90.3971 94.3415 88.2254 92.1698 86.0537C89.7266 92.5689 84.8402 99.8985 75.8817 106.414C69.3665 111.029 64.4801 116.729 61.494 122.973C42.2199 162.879 68.8236 198.984 69.9095 200.341C71.8098 203.056 71.5383 206.856 68.8236 208.757C67.1948 210.114 65.8375 210.657 64.7516 210.657Z" fill="#87BBA1"/>
<path d="M100.585 292.368C95.6989 292.368 90.8125 291.554 86.1976 289.925C77.5107 286.939 70.1811 280.695 65.8376 272.551C54.1645 251.105 26.4749 194.097 22.4029 127.86C20.2312 94.1976 28.1037 68.4083 45.4776 51.3059C59.5939 37.4611 76.1533 33.3891 82.397 32.5747C84.0258 32.3032 85.9261 32.0317 87.8264 32.0317H88.0979C107.372 32.0317 122.303 38.2755 132.347 50.4915C155.693 78.4526 146.463 129.76 143.206 146.591C139.134 168.037 141.577 210.385 144.834 240.247C147.549 266.308 135.062 285.853 111.987 291.283C107.915 291.825 104.386 292.368 100.585 292.368ZM87.8264 44.2477C86.7405 44.2477 85.3832 44.2478 84.2973 44.5192C71.5384 46.4195 30.2754 58.364 34.6189 127.317C38.6909 191.111 65.2946 246.219 76.4248 266.851C79.4109 272.551 84.2973 276.623 89.9981 278.524C95.9704 280.695 102.486 280.695 109.272 279.338C133.704 273.637 133.976 250.834 132.89 241.333C131.804 230.202 126.103 173.737 131.533 144.148C139.134 102.885 136.419 73.8376 123.117 58.0926C115.245 48.5912 103.843 43.9763 88.0979 43.9763C87.8264 44.2478 87.8264 44.2477 87.8264 44.2477Z" fill="#87BBA1"/>
<path d="M64.7516 210.657C62.8513 210.657 61.2225 209.843 59.8652 208.214C58.5079 206.585 27.5606 165.05 50.3638 118.087C54.1644 109.943 60.4082 102.885 68.5522 96.9123C84.0258 85.7822 82.3969 71.123 82.3969 71.123C82.1255 67.8654 84.0257 65.1507 87.2833 64.3363C90.2695 63.7934 93.5271 65.6936 94.3415 68.6798C94.3415 68.9512 96.7847 76.8238 106.286 81.4387C122.031 89.3112 143.477 128.402 123.66 187.854C122.574 191.111 119.045 192.74 116.059 191.654C112.801 190.568 111.172 187.039 112.258 184.053C129.904 131.389 111.715 97.4552 101.128 92.2974C97.3276 90.3971 94.3415 88.2254 92.1698 86.0537C89.7266 92.5689 84.8402 99.8985 75.8817 106.414C69.3665 111.029 64.4801 116.729 61.494 122.973C42.2199 162.879 68.8236 198.984 69.9095 200.341C71.8098 203.056 71.5383 206.856 68.8236 208.757C67.1948 210.114 65.8375 210.657 64.7516 210.657Z" fill="#87BBA1"/>
<path d="M199.671 269.837C195.87 269.837 192.07 269.294 188.269 268.479C165.194 263.05 152.707 243.504 155.422 217.444C158.679 187.854 161.122 145.505 157.05 123.788C154.064 106.957 144.834 55.9208 168.181 27.6883C178.496 15.4723 193.156 9.5 212.43 9.5H212.701C214.601 9.5 216.23 9.7715 218.13 10.043C228.989 11.6718 283.282 24.7022 277.853 105.599C273.51 171.837 245.82 228.574 234.147 250.02C229.532 258.435 222.202 264.407 213.787 267.393C209.444 269.022 204.557 269.837 199.671 269.837ZM212.701 21.716C196.956 21.716 185.554 26.331 177.682 35.5608C164.651 51.3059 161.665 80.0814 169.266 121.616C174.696 150.934 168.995 207.671 167.638 218.801C166.552 228.302 166.823 251.105 191.255 256.806C197.77 258.435 204.286 258.164 210.258 255.992C215.959 254.092 220.845 250.02 223.831 244.319C235.233 223.687 261.837 168.58 266.18 104.785C270.523 36.1038 229.261 23.8878 216.502 21.9875C215.416 21.716 214.058 21.716 212.973 21.716C212.973 21.716 212.973 21.716 212.701 21.716Z" fill="#87BBA1"/>
<path d="M235.776 188.125C234.418 188.125 233.332 187.582 231.975 186.768C229.26 184.867 228.718 181.067 230.889 178.352C231.975 176.723 258.579 140.89 239.305 100.984C236.319 94.7405 231.432 89.3112 224.917 84.4248C215.959 77.9096 211.344 70.58 208.9 64.0648C206.457 66.2365 203.471 68.4083 199.671 70.3085C189.083 75.4664 170.895 109.128 188.269 162.064C189.355 165.322 187.726 168.579 184.468 169.665C181.211 170.751 177.953 169.122 176.867 165.865C157.05 106.414 178.496 67.0509 194.513 59.4499C204.014 54.8349 206.457 46.6909 206.457 46.6909C207.272 43.7048 210.258 41.8045 213.515 42.3474C216.773 42.8904 218.673 45.8765 218.402 49.1341C218.402 49.677 217.044 64.0648 232.247 75.1949C240.391 81.1672 246.634 88.2253 250.435 96.3693C272.967 143.333 242.019 184.596 240.662 186.496C239.305 187.311 237.676 188.125 235.776 188.125Z" fill="#87BBA1"/>
</svg>
