<svg width="36" height="44" viewBox="0 0 36 44" fill="none" xmlns="http://www.w3.org/2000/svg">
<path fill-rule="evenodd" clip-rule="evenodd" d="M23.5 19C24.603 19 25.5 19.897 25.5 21V29C25.5 30.103 24.603 31 23.5 31H11.5C10.397 31 9.5 30.103 9.5 29V21C9.5 19.897 10.397 19 11.5 19H12.5V16C12.5 13.243 14.743 11 17.5 11C20.257 11 22.5 13.243 22.5 16V19H23.5ZM17.5 13C15.846 13 14.5 14.346 14.5 16V19H20.5V16C20.5 14.346 19.154 13 17.5 13ZM12.375 20.8442C11.8227 20.8442 11.375 21.292 11.375 21.8442V28.2331C11.375 28.7854 11.8227 29.2331 12.375 29.2331H22.6223C23.1746 29.2331 23.6223 28.7854 23.6223 28.2331V21.8442C23.6223 21.292 23.1746 20.8442 22.6223 20.8442H12.375Z" fill="#12328B"/>
</svg>
